<mxfile host="app.diagrams.net" modified="2020-09-05T10:39:26.152Z" agent="5.0 (X11; Linux x86_64) AppleWebKit/537.36 (KHTML, like Gecko) Chrome/81.0.4044.92 Safari/537.36" etag="Mw31mumu0bKPps18DzQL" version="12.9.12" type="github">
  <diagram id="ocDNRk60MygHFlHO4RFj" name="Page-1">
    <mxGraphModel dx="801" dy="445" grid="1" gridSize="10" guides="1" tooltips="1" connect="1" arrows="1" fold="1" page="1" pageScale="1" pageWidth="1169" pageHeight="1654" math="0" shadow="0">
      <root>
        <mxCell id="0" />
        <mxCell id="1" parent="0" />
        <mxCell id="ChS81yBTxNXNN1gPd62B-1" value="" style="verticalLabelPosition=bottom;verticalAlign=top;html=1;shadow=0;dashed=0;strokeWidth=1;shape=mxgraph.android.phone2;strokeColor=#c0c0c0;" vertex="1" parent="1">
          <mxGeometry x="180" y="220" width="240" height="460" as="geometry" />
        </mxCell>
        <mxCell id="ChS81yBTxNXNN1gPd62B-2" value="" style="rounded=0;whiteSpace=wrap;html=1;" vertex="1" parent="1">
          <mxGeometry x="190" y="260" width="220" height="380" as="geometry" />
        </mxCell>
        <mxCell id="ChS81yBTxNXNN1gPd62B-3" value="" style="rounded=0;whiteSpace=wrap;html=1;" vertex="1" parent="1">
          <mxGeometry x="190" y="600" width="220" height="40" as="geometry" />
        </mxCell>
        <mxCell id="ChS81yBTxNXNN1gPd62B-4" value="" style="rounded=0;whiteSpace=wrap;html=1;" vertex="1" parent="1">
          <mxGeometry x="190" y="260" width="220" height="40" as="geometry" />
        </mxCell>
        <mxCell id="ChS81yBTxNXNN1gPd62B-5" value="" style="rounded=0;whiteSpace=wrap;html=1;" vertex="1" parent="1">
          <mxGeometry x="190" y="300" width="220" height="20" as="geometry" />
        </mxCell>
        <mxCell id="ChS81yBTxNXNN1gPd62B-6" value="NGO" style="text;html=1;strokeColor=none;fillColor=none;align=center;verticalAlign=middle;whiteSpace=wrap;rounded=0;" vertex="1" parent="1">
          <mxGeometry x="170" y="270" width="110" height="20" as="geometry" />
        </mxCell>
        <mxCell id="ChS81yBTxNXNN1gPd62B-8" value="" style="whiteSpace=wrap;html=1;shape=mxgraph.basic.oval_callout" vertex="1" parent="1">
          <mxGeometry x="370" y="270" width="30" height="20" as="geometry" />
        </mxCell>
        <mxCell id="ChS81yBTxNXNN1gPd62B-9" value="" style="html=1;verticalLabelPosition=bottom;align=center;labelBackgroundColor=#ffffff;verticalAlign=top;strokeWidth=2;strokeColor=#0080F0;shadow=0;dashed=0;shape=mxgraph.ios7.icons.looking_glass;" vertex="1" parent="1">
          <mxGeometry x="340" y="270" width="20" height="20" as="geometry" />
        </mxCell>
        <mxCell id="ChS81yBTxNXNN1gPd62B-10" value="" style="shape=actor;whiteSpace=wrap;html=1;" vertex="1" parent="1">
          <mxGeometry x="375" y="605" width="20" height="30" as="geometry" />
        </mxCell>
        <mxCell id="ChS81yBTxNXNN1gPd62B-11" value="" style="shape=image;html=1;verticalAlign=top;verticalLabelPosition=bottom;labelBackgroundColor=#ffffff;imageAspect=0;aspect=fixed;image=https://cdn4.iconfinder.com/data/icons/ionicons/512/icon-plus-128.png" vertex="1" parent="1">
          <mxGeometry x="286" y="605" width="28" height="28" as="geometry" />
        </mxCell>
        <mxCell id="ChS81yBTxNXNN1gPd62B-12" value="" style="pointerEvents=1;shadow=0;dashed=0;html=1;strokeColor=#432D57;fillColor=#76608a;labelPosition=center;verticalLabelPosition=bottom;verticalAlign=top;outlineConnect=0;align=center;shape=mxgraph.office.concepts.home;fontColor=#ffffff;" vertex="1" parent="1">
          <mxGeometry x="200" y="611" width="19" height="18" as="geometry" />
        </mxCell>
        <mxCell id="ChS81yBTxNXNN1gPd62B-13" value="" style="shape=mxgraph.signs.travel.information_2;html=1;fillColor=#000000;strokeColor=none;verticalLabelPosition=bottom;verticalAlign=top;align=center;" vertex="1" parent="1">
          <mxGeometry x="330" y="607" width="20" height="28" as="geometry" />
        </mxCell>
        <mxCell id="ChS81yBTxNXNN1gPd62B-15" value="Upcoming events" style="text;html=1;strokeColor=none;fillColor=none;align=center;verticalAlign=middle;whiteSpace=wrap;rounded=0;" vertex="1" parent="1">
          <mxGeometry x="250" y="300" width="100" height="20" as="geometry" />
        </mxCell>
        <mxCell id="ChS81yBTxNXNN1gPd62B-20" value="" style="shape=image;html=1;verticalAlign=top;verticalLabelPosition=bottom;labelBackgroundColor=#ffffff;imageAspect=0;aspect=fixed;image=https://cdn2.iconfinder.com/data/icons/picol-vector/32/text_align_right-128.png" vertex="1" parent="1">
          <mxGeometry x="240" y="606" width="28" height="28" as="geometry" />
        </mxCell>
        <mxCell id="ChS81yBTxNXNN1gPd62B-39" value="" style="verticalLabelPosition=bottom;verticalAlign=top;html=1;shadow=0;dashed=0;strokeWidth=1;shape=mxgraph.android.phone2;strokeColor=#c0c0c0;" vertex="1" parent="1">
          <mxGeometry x="530" y="220" width="240" height="460" as="geometry" />
        </mxCell>
        <mxCell id="ChS81yBTxNXNN1gPd62B-40" value="" style="rounded=0;whiteSpace=wrap;html=1;" vertex="1" parent="1">
          <mxGeometry x="540" y="260" width="220" height="380" as="geometry" />
        </mxCell>
        <mxCell id="ChS81yBTxNXNN1gPd62B-41" value="" style="rounded=0;whiteSpace=wrap;html=1;" vertex="1" parent="1">
          <mxGeometry x="540" y="600" width="220" height="40" as="geometry" />
        </mxCell>
        <mxCell id="ChS81yBTxNXNN1gPd62B-42" value="" style="rounded=0;whiteSpace=wrap;html=1;" vertex="1" parent="1">
          <mxGeometry x="540" y="260" width="220" height="40" as="geometry" />
        </mxCell>
        <mxCell id="ChS81yBTxNXNN1gPd62B-44" value="NGO" style="text;html=1;strokeColor=none;fillColor=none;align=center;verticalAlign=middle;whiteSpace=wrap;rounded=0;" vertex="1" parent="1">
          <mxGeometry x="520" y="270" width="110" height="20" as="geometry" />
        </mxCell>
        <mxCell id="ChS81yBTxNXNN1gPd62B-45" value="" style="whiteSpace=wrap;html=1;shape=mxgraph.basic.oval_callout" vertex="1" parent="1">
          <mxGeometry x="720" y="270" width="30" height="20" as="geometry" />
        </mxCell>
        <mxCell id="ChS81yBTxNXNN1gPd62B-46" value="" style="html=1;verticalLabelPosition=bottom;align=center;labelBackgroundColor=#ffffff;verticalAlign=top;strokeWidth=2;strokeColor=#0080F0;shadow=0;dashed=0;shape=mxgraph.ios7.icons.looking_glass;" vertex="1" parent="1">
          <mxGeometry x="690" y="270" width="20" height="20" as="geometry" />
        </mxCell>
        <mxCell id="ChS81yBTxNXNN1gPd62B-47" value="" style="shape=actor;whiteSpace=wrap;html=1;" vertex="1" parent="1">
          <mxGeometry x="725" y="605" width="20" height="30" as="geometry" />
        </mxCell>
        <mxCell id="ChS81yBTxNXNN1gPd62B-48" value="" style="shape=image;html=1;verticalAlign=top;verticalLabelPosition=bottom;labelBackgroundColor=#ffffff;imageAspect=0;aspect=fixed;image=https://cdn4.iconfinder.com/data/icons/ionicons/512/icon-plus-128.png" vertex="1" parent="1">
          <mxGeometry x="636" y="605" width="28" height="28" as="geometry" />
        </mxCell>
        <mxCell id="ChS81yBTxNXNN1gPd62B-49" value="" style="pointerEvents=1;shadow=0;dashed=0;html=1;strokeColor=none;fillColor=#505050;labelPosition=center;verticalLabelPosition=bottom;verticalAlign=top;outlineConnect=0;align=center;shape=mxgraph.office.concepts.home;" vertex="1" parent="1">
          <mxGeometry x="550" y="611" width="19" height="18" as="geometry" />
        </mxCell>
        <mxCell id="ChS81yBTxNXNN1gPd62B-50" value="" style="shape=mxgraph.signs.travel.information_2;html=1;fillColor=#000000;strokeColor=none;verticalLabelPosition=bottom;verticalAlign=top;align=center;" vertex="1" parent="1">
          <mxGeometry x="680" y="607" width="20" height="28" as="geometry" />
        </mxCell>
        <mxCell id="ChS81yBTxNXNN1gPd62B-53" value="Explore" style="text;html=1;strokeColor=none;fillColor=none;align=center;verticalAlign=middle;whiteSpace=wrap;rounded=0;" vertex="1" parent="1">
          <mxGeometry x="680" y="300" width="40" height="20" as="geometry" />
        </mxCell>
        <mxCell id="ChS81yBTxNXNN1gPd62B-54" value="" style="shape=image;html=1;verticalAlign=top;verticalLabelPosition=bottom;labelBackgroundColor=#ffffff;imageAspect=0;aspect=fixed;image=https://cdn2.iconfinder.com/data/icons/picol-vector/32/text_align_right-128.png;imageBackground=#B5739D;" vertex="1" parent="1">
          <mxGeometry x="590" y="607" width="28" height="28" as="geometry" />
        </mxCell>
        <mxCell id="ChS81yBTxNXNN1gPd62B-55" value="" style="rounded=0;whiteSpace=wrap;html=1;" vertex="1" parent="1">
          <mxGeometry x="190" y="340" width="220" height="80" as="geometry" />
        </mxCell>
        <mxCell id="ChS81yBTxNXNN1gPd62B-58" value="" style="html=1;verticalLabelPosition=bottom;align=center;labelBackgroundColor=#ffffff;verticalAlign=top;strokeWidth=2;strokeColor=#0080F0;shadow=0;dashed=0;shape=mxgraph.ios7.icons.controls;" vertex="1" parent="1">
          <mxGeometry x="383" y="326" width="17" height="14" as="geometry" />
        </mxCell>
        <mxCell id="ChS81yBTxNXNN1gPd62B-59" value="" style="whiteSpace=wrap;html=1;aspect=fixed;" vertex="1" parent="1">
          <mxGeometry x="200" y="350" width="60" height="60" as="geometry" />
        </mxCell>
        <mxCell id="ChS81yBTxNXNN1gPd62B-60" value="&lt;b&gt;&lt;font style=&quot;font-size: 19px&quot;&gt;&lt;i&gt;Name&lt;/i&gt;&lt;/font&gt;&lt;/b&gt;" style="text;html=1;strokeColor=none;fillColor=none;align=center;verticalAlign=middle;whiteSpace=wrap;rounded=0;" vertex="1" parent="1">
          <mxGeometry x="280" y="350" width="40" height="20" as="geometry" />
        </mxCell>
        <mxCell id="ChS81yBTxNXNN1gPd62B-61" value="19 th june 2020&lt;br&gt;Venue : Mumbai&lt;br&gt;" style="text;html=1;strokeColor=none;fillColor=none;align=center;verticalAlign=middle;whiteSpace=wrap;rounded=0;" vertex="1" parent="1">
          <mxGeometry x="268" y="380" width="90" height="20" as="geometry" />
        </mxCell>
        <mxCell id="ChS81yBTxNXNN1gPd62B-62" value="" style="rounded=0;whiteSpace=wrap;html=1;" vertex="1" parent="1">
          <mxGeometry x="190" y="420" width="220" height="80" as="geometry" />
        </mxCell>
        <mxCell id="ChS81yBTxNXNN1gPd62B-63" value="19 th june 2020&lt;br&gt;Venue : Mumbai&lt;br&gt;" style="text;html=1;strokeColor=none;fillColor=none;align=center;verticalAlign=middle;whiteSpace=wrap;rounded=0;" vertex="1" parent="1">
          <mxGeometry x="268" y="460" width="90" height="20" as="geometry" />
        </mxCell>
        <mxCell id="ChS81yBTxNXNN1gPd62B-64" value="&lt;b&gt;&lt;font style=&quot;font-size: 19px&quot;&gt;&lt;i&gt;Name&lt;/i&gt;&lt;/font&gt;&lt;/b&gt;" style="text;html=1;strokeColor=none;fillColor=none;align=center;verticalAlign=middle;whiteSpace=wrap;rounded=0;" vertex="1" parent="1">
          <mxGeometry x="280" y="430" width="40" height="20" as="geometry" />
        </mxCell>
        <mxCell id="ChS81yBTxNXNN1gPd62B-65" value="" style="whiteSpace=wrap;html=1;aspect=fixed;" vertex="1" parent="1">
          <mxGeometry x="200" y="430" width="60" height="60" as="geometry" />
        </mxCell>
        <mxCell id="ChS81yBTxNXNN1gPd62B-66" value="" style="rounded=0;whiteSpace=wrap;html=1;" vertex="1" parent="1">
          <mxGeometry x="190" y="500" width="220" height="80" as="geometry" />
        </mxCell>
        <mxCell id="ChS81yBTxNXNN1gPd62B-67" value="19 th june 2020&lt;br&gt;Venue : Mumbai&lt;br&gt;" style="text;html=1;strokeColor=none;fillColor=none;align=center;verticalAlign=middle;whiteSpace=wrap;rounded=0;" vertex="1" parent="1">
          <mxGeometry x="268" y="540" width="90" height="20" as="geometry" />
        </mxCell>
        <mxCell id="ChS81yBTxNXNN1gPd62B-68" value="&lt;b&gt;&lt;font style=&quot;font-size: 19px&quot;&gt;&lt;i&gt;Name&lt;/i&gt;&lt;/font&gt;&lt;/b&gt;" style="text;html=1;strokeColor=none;fillColor=none;align=center;verticalAlign=middle;whiteSpace=wrap;rounded=0;" vertex="1" parent="1">
          <mxGeometry x="280" y="510" width="40" height="20" as="geometry" />
        </mxCell>
        <mxCell id="ChS81yBTxNXNN1gPd62B-69" value="" style="whiteSpace=wrap;html=1;aspect=fixed;" vertex="1" parent="1">
          <mxGeometry x="200" y="510" width="60" height="60" as="geometry" />
        </mxCell>
        <mxCell id="ChS81yBTxNXNN1gPd62B-70" value="" style="dashed=0;aspect=fixed;verticalLabelPosition=bottom;verticalAlign=top;align=center;shape=mxgraph.gmdl.bookmark;strokeColor=none;fillColor=#737373;shadow=0;" vertex="1" parent="1">
          <mxGeometry x="388" y="390" width="12" height="20" as="geometry" />
        </mxCell>
        <mxCell id="ChS81yBTxNXNN1gPd62B-87" value="" style="dashed=0;aspect=fixed;verticalLabelPosition=bottom;verticalAlign=top;align=center;shape=mxgraph.gmdl.bookmark;strokeColor=none;fillColor=#737373;shadow=0;" vertex="1" parent="1">
          <mxGeometry x="388" y="470" width="12" height="20" as="geometry" />
        </mxCell>
        <mxCell id="ChS81yBTxNXNN1gPd62B-88" value="" style="dashed=0;aspect=fixed;verticalLabelPosition=bottom;verticalAlign=top;align=center;shape=mxgraph.gmdl.bookmark;strokeColor=none;fillColor=#737373;shadow=0;" vertex="1" parent="1">
          <mxGeometry x="388" y="550" width="12" height="20" as="geometry" />
        </mxCell>
        <mxCell id="ChS81yBTxNXNN1gPd62B-90" value="" style="rounded=0;whiteSpace=wrap;html=1;" vertex="1" parent="1">
          <mxGeometry x="540" y="320" width="220" height="140" as="geometry" />
        </mxCell>
        <mxCell id="ChS81yBTxNXNN1gPd62B-91" value="" style="rounded=0;whiteSpace=wrap;html=1;" vertex="1" parent="1">
          <mxGeometry x="540" y="430" width="220" height="30" as="geometry" />
        </mxCell>
        <mxCell id="ChS81yBTxNXNN1gPd62B-93" value="" style="shape=image;verticalLabelPosition=bottom;labelBackgroundColor=#ffffff;verticalAlign=top;aspect=fixed;imageAspect=0;image=data:image/jpeg,/9j/4AAQSkZJRgABAQAAAQABAAD/2wBDAA0JCgsKCA0LCgsODg0PEyAVExISEyccHhcgLikxMC4pLSwzOko+MzZGNywtQFdBRkxOUlNSMj5aYVpQYEpRUk//2wBDAQ4ODhMREyYVFSZPNS01T09PT09PT09PT09PT09PT09PT09PT09PT09PT09PT09PT09PT09PT09PT09PT09PT0//wAARCADwAaoDASIAAhEBAxEB/8QAGwAAAgMBAQEAAAAAAAAAAAAABAUCAwYBAAf/xAA8EAACAQMCBAQEBAUDBAIDAAABAgMABBESIQUxQVETImFxBhQygUKRobEjUsHR4RVi8DNDcvEHJCVTkv/EABkBAAMBAQEAAAAAAAAAAAAAAAECAwAEBf/EACYRAAICAgICAQUBAQEAAAAAAAABAhEhMQMSQVEiBBMyYXFCgZH/2gAMAwEAAhEDEQA/ANfJdwrzYVSeIwn6WrDzXt5MNtvSqI7y8VsNkiuTszqUUbG64usZ8pApVdcSmkBI1H7UDbxyTnXJTe0tUZgMgmktsZJIBgubt+mB686nc8Rkt4zrUn1rRw8OVVB0jNKuOcN8SE4X8qNUDtZmn4t4rE71MXLaMxHBoX/S5CcbgelXJwyTGRqI9aNIybArya4kI1PnHaq7aGa5kEUYJdj15Cnq8O1LgrtV9tbJZyCTAAFNpAqweL4UlRBM0/mG+AKfcDuWjbwJG3WqZuPQrbkRoWbGKzkHG2j4qHYYDHcUM2bFH0qQB4j7VkOJ8Kja7MgUZPWtTYzLcW6uDkEUJxO2JBZRTSVqxYunQi4fwqBpvPvTxbG2hQaEUVkLjiF7aXP8ADY+bIoiTjN5cRad023xSXQ+zTG9t41I1jbpS28uDOf4a4XvnnWcFzcr5yhYZ5U2sZzOgLoykdMVm2FJE4FcqTyPSpOW7mrA2ASEyTS++u2iJwPegkZsuEDSuc70RCFhZVc7DnSWHi0sQOUOnPOjrS9N2+SMCmoF2aAXMSRYZhgjbG9Lbm4VssowtDyz+Gffliq1bx3BIyBQsyQDLaeNP4jMcelFQsUdU6d6ukjbGwFchRFlwxyaA2hpDGjgZ2NXuyxJuRQcfMaW2qUqFtjmm0LVkhdIfxZriurtgGqPlkAyatgiOcpQs1BqKgFUzQ620rkCjba3JGWFSkjEbZJpqFsqsbfwFq2XlUoXDE46VCY86SeB4gFxvS+c7mj580um3NQZdAzb1TJVzc6HlPmooLKpDig5iScDmaJlbaoWEXzPEYYumrJ9hToVmz4YhtuHwwA7hd8VYGl+YBLNj32rokVRzAxVDXaNletVOcJu520jcZoFp5H2IIFSVgfMeXSomQ6vKNhQbCkXW0AaVcjrmnTyBEApHaTM9yBvgUdK5PWjdIFWyUs3rVBmyOdUSPvVJc1NyKqIX4metcL1QrZFeZsChZqPSyYFLLqbY70TPJzqzg1j83c/MzDMMR2B/E39hQq3Q1qKtjDgdgbS1MsoxNMAWz+Feg/rTPFdrlXSo527dsxJjRFzjNAzSojnOKKfXIukUKbLW4LE0hQthux4e2Se1NuCSZlLSLgk7UBFbpEvQCiLeZVn0qd6Fmo1TXaIuOZpff3a+GSxwDUPFCopY86BvJUnBRcE0XJsVRoELxsfK4HWotdpEuXYADpXhZTDBwGP7UNfWRkjOQQayCzjcXiwSp2oG74nJIuEUnNU23CpWn0OcrWhtuDokY1AH3p20LkUcMZ5k864xTG24XbEtJJErMe45UWkEMBPLGaquj/I7IuOhpGMiVlxf5C/WzwShGx7VqDMksOrI3FY22t42bVzfOcnnU7y/uraMpENu9MnWBXHyX3lqst8xXkeZr0VlGWAAzQVpeyMPOME0y4ZI3zGuU4FCg3SDBwvK/8ATqie3kgTOjAHana3sAAXWM16aIXMZCnnTUhFJ+TOQ3EeSHbB6VU9tFPOJCMijZPh+UTaw4P6USvDZY123paY9oW3NnHoA0g+lQtIEjHIDuKJuUuE8qxH/wAqCCtq8+dVAITNbpJjSvKhG1WxGVwDRkTiMAkGh7nM7jy/esYsjJmAONz61z5Vw+Qu1WW6eGoyKKN1GuBjesE7bQsDuAKvlTHWr4GWRAVFWNDr501YEvIEltrGTRdvEI1xirfJGvQVULqLcA1kqM22WtMYwcChmkeYktkChr3iCRjYZ9KoXiQkj8gINbsZRGtmuNe+a9PVfCXaW2kdv5sVO45GkloeOwCc7UulOc0bcttS+Q1Fl0Uud6Hl61Y7eaqJW2JoozBpm8tEcEbRdvL/ACrtQUzbU1trcWthHLrAeQZINUROTGEN9rlKOCD3omOBXJfINLUZB5jjJ7USsj6TpI00wgdDokmEQIBqy7VYNIG+elKIYNMpkSQhs880U0pzmVtRogottZiLpQBtimLnYmkD30cMiNkAA4NMpLkGIMDzFLIMURmkwaH8UZ51RcT0KJvNsanZahqsvrUZJfWhElyK4zk7DcnkB1rWCgiCGS+ulgjOM7s38o6mtXDDHbwpDEulEGAKF4RYfI2vnA8aTeQ9uw+1Gk1aMaRCcrZwmoZrjtiqvEo2BIzq2rqmrST9qCncq2VQ55U+kuEyVIPvQF34AXVtkUKGTAUieYAHJHarorXRIGxsOdWW8igY23oq3USynJ5UAlV0paDSGznlS6M+G3M5zT26hAjGnANJflZjMSoPOjQAxL1VTGDn2oWWZ5XIRcg89qNgsC5Gtd/TlTyz4fFHH5lGTWoDlRkFuEgk3GGHMGiDxqDRhSM+9EfEPDY5LtDGMZUg4rJX3CLmC4BjfUh/SivRrxYyk4k0kuc7A9KjczytCdLHLcvSp2HDGCanajGstWyke1bBslHDVkCBic5G9EygyYBG1TSMwYU7VG4YxlWVck8sUvkbwcis8YZ1BNSZnibCnIPfpUk+aYBniKrjvSziVzIr6IgcHrRFKeL8VmgIMUmGH8tQsvjriEBCzRxOo64waDuDGU/jAaqTTogyVqkUmTk2j6Tw74ytbvCyAI/an1vexXAyrA18QV2U5UkUdbcWv7YgxXDjHQnIo9GtC909n2cojchnNVScPtW80pPrpwKzXwbx+54m1wt0q4gRfMpO5J/sDWgmnLbY/KklJLYk51ornsLfH8F2U9m3FZ/iVyljcCKYaXPId6cNOSMb7GhryG3vkEd1GsmM6WI3T1B6VPumCP1DTyK5OKRBQAdzV9vJFNgE1cPheCeJZUlJA5Z/rSyeyktLoAvnTyxtRo61JPQ6WWS2xp3Wr04mMYfANInvJjhNzVkUTTHLPjHatkNJjO4vtYIUZzS6Scq2QcUvvuLJZs0WdTCkl7xmW4Q6Do9qeMbEcktDi64tHHIVfzV2z4rGCdRxnlWRknZhuTmqmmcjmdqp9sn9w+y8EYScKSUHIckg1O4NU/DkZh+GrBDnPgqTnuRVtzyNc8tF47FF23Ol8jY+9HXh50slO9ROhaIsRihpTzq1jihZmxmnQGCzNzxUGvJBoE7ELjYZrzq0gwnOoJYXFxIPF+kdatFKsnPNu8BqXaun8LLN0ppYtcSRfxdhULC0SFAAgooyDUU5UHRslgjCLs+9VTh9IxUiCE571dBGXGH5VjCHiNvdXICrsvpR3zL2tmgmJOBgmmjpGqkCg5olngZHG1FqwJ0wFrlZBqU5Bodp8PsaAlL2kpQg6eleWQOMg0nSiimOYbjK860Pw3Y+M/z0w8iHEQPVu/2rNcDspeJXqWyEhecjfyr1NfR440hiSKJQsaDSqjoK0Y5sE54pEiarZsV12wKGkkxTtk0jksgHWhjNvzqi5uMA70AboZ5mpORaMCrj154KDwcZPP2oPhksN4RqYE43z3rPXHFnkZtZ1Z5E1TZ3MlvN4yNt2qvVkOyN7JbJCgIwD3qMTMCWXp+tIbTjEt5Iqv8AT1FPPm4kj/3dqFDJk0uJPFIl+2a9LfwISAQx7Cl0tyXcqo59TUBaahnVW0HY1tON24n8ORghPIHrTK44xGkeIjqPpWVewjd1cjIHevM3hShdO3XetYOt7DWuZri6LtnPTtVVyzO+Wxy3qq4uWjAMWewGKonjubpPIxBx0oDUD3nFntm8NcGoWPG5DKQy796Dls7lZSZoyfbejOD24+Zy0WVHcdad1Qiuw2TiOpgNJUDuOdEWrtOQ4z6DtV89vHKQirv12qcNq8C/wyfUGkQzZG64iUQxeEwYfiPKsve3+ifcZIrQX+poyoXzGlK8J8Z8vk0VSA78Ca6uxcbKtVR2ck4wqfetPFwKKJteOXer7e2jWchUGBzPen71oXo3szMHA5mbzA4qyTgUxbTCCT67VrZAztpSMnHM0PdXD2uNKAtywaX7khvtxK/hG0l4dJeLIADIqfpn+9PXl2PmIz0Bpba3IadXYYZlI99uX6US7s9Slbds4fqV1kWPKRtnI9apMpJ2NROTuRXdGCBvWo5XIuFxcxwyC1kCSMuAWGVz60qRbuctJdv51JB+1MRzx0FQuohLHpViC3Oin4Ov6Tkz1YNDPbOpUMC45jPKqo5ZAxypCnr3q6w+G4FYyBiSOrHNX3AIHhKBscE0zO9OxHxGxtrrOk4kxzxWfuOHSwsRzHStdPHFCms8z2NK5YpLmYKgOk77CmjJoSUUzONbup3FWxWEkuBpI1HHKtXBwVNQMgyfUUxisEWaFQo+sfvTvkYq40auGMQ2kMS8kQKPyoe5GxoxuWKCudlNRlorHYjvD5jSyQ+amF43nNLn3zUUdBRKaDmbc0RMTmhAPEuEQnYneqIWTDLSFEjV3UkneoT3snjhIk2O24o8yRZ04GByrvgxNJkAZ6Zp0yLXoqglmQZapSSLjxG2NEx2ZdsasmuSWbAFW3FFMDTPWky3Cj0pjpwm4xQUSRxoFjXDCq7riZhIjkXB70QFk0q6yM1WJ1II7UrgnM1/qJJUdKdSi38LoAeZo6AI+IXEEuU05I2zSmYGDDJk55AU1vvly2ISM96afB/Azd8QHEboZt7Y/wANT+OTv9v3plQrs0/wxwpuGcLXx1AupwHm/wBvZft++aas2K6x2oaaUKDSNjJWclkAFLrq4HLIrlzcc96VXE/OoykWjA5cz5JzQfiDuahNKTzNCmU56UEihlRHI2+DVyxzMuMHHoK08tikOQF29BRtpawG2PlG3XFdL5DjXGZvhavbSamzjvTeW7BUMmpj3q1bKMk8/tRcNnEE5elI3bsdKlRRaFWQM/Md6YRokiZUj0oaSMFfDA64+1XWyhBgE4oBLnKou4J7Uh4rJKs6LDETk7sK0bASLgZOPSoRww85E3z1pkwMX2QZtJlG/Yii5NazKsagg9qiyNLLmEqAOpomCGbOp8YHUUobJPaZTWw39artokVzpj2o1pP4RDHO3WqbVx5sg1jFdyGgRpVQ/ahoeIg25kOdXbtRst0oDRsu5pVJw/m5OlCc470f4BfsEnuLmVw0ajBOSTTi2VYrXxJSNWMmlyRSofJlhjlUnhumwZZAI6Fho5d8Rcv4cUZOT9qutCsKF5dnO5zXolSU+QA6etdW2MzkuQAOVYITDeo2Qq7nrVFykWvW7jPaqJZ1icxquSOwp3bWtr8rGyQxuGAbUy5JPfNLKVCT5FBWwCGBJEWQ4XTuKk+GOpNweooyWxt5lI0FD3Q6aXHhl7aXAe2uPHtm2khkwGH+4HrjtS9kzl5pw5Y42WKuRVirnbqNxXSuk6WBB9akmQQegNazgorLAbYplwOCC4uZBPGshVQyaum++35UunUK/l5HcH0pp8Npm6ml6JHj8z/imhllOK1ND0Roq6VRQOwGKznxNbxRGOZAVaXIYgbbY/WtIxxWf48VluY45DhUQnB9T/iqypI7+K3Iw5Vrm7EaSlsHkaf29lhVBQAgUXacHtHRuIXTC3s4hq15wXx69v36UNNxKFzLNbhYYB9Ck74HU560vgv5ov0PkAYwK9BDI/FrfDeQEsRSr/VY5ISIZgWxnnR3wk95cXMslxbTLGi+WRkIVt+h60A3RqWoG7+k0ew2pbfOAMZ3oT0GGxDdnzGl7jnR1xuxoKTYVFHSBTnnQiyNFJ4gjLAbbdKIuW6UqPE5IZiiAGMHf1q8I2Q5ZJDqCaKTZ4yp9jR0EUcqkiXBHTNTXw5uGpcrpJIzzpU6OZ9KHAbnvRoS6H0OiMZVwSKl8yhbzGksVrcCUeFI3saLW1vTMoYrg86yTQW0w9AjzFwNhVPELZLhdQ2YCiNPgnDEDbeq3ljMZOoEUUKxdw+zEeogg551ZxGFlUFcY7V1rhQCU2FGR2Ynt/E8Vmc8lHU0X7AK7Dh54jex20a4Zt2PRR1NfQre3is7WO3t10xRjAH9aE4LwwcOtfOFNxLvIw6dlHtRc0gFBsGyM0ukUrurjGe9TupzvvSmebfnUZSLwgcnmzml88leuJckjvQUsh70qRR4OSyZziqMnvUJHqjU1VSJtmtuYG8PIGRnFSWIhMAfpTG7T5ddGM9BivH+HbayBkDtTUTsXQWpRi0pwT2roj0MdOwqyK4NwCdJwPSpRuDJpwBQMQ8IH6hXAI0fGcGjGi1bAbd6oa1ij8zt+dY1lsMsa+XnnpXLiMyKQq86jH4GR5gKuluY0QEEYogBPkZYUzHJg9udWpLIE0Pz79Kpk4lEN9Y9BVM3EY9GQOdYNewtGTG/51RNdRA6UO/XFBTTyNCQjbnnjpVkNvFDAHc6n7k0GwpBEM8byYKnNXSMkhCscCo8NSORy2wz1713ib29k6GSQeY4FY1kzAqJ/D3zUJrUNalpnxiu2t5FLgbYFV8T8WZP4YPh9cUGYHjGsrBajnzbtXr2GS0XSjMzHtzq6xaNPMg846UR/Fkk8WUaQOVZGYogR3DLMuliOtWfD/E54+Ktwu6C+CwJhfsw3x9xn8qNe2lmuQ+MJ6Up4jCw4lFJbMqPEwcE8sg0Wk1TEnHsqNg0ZzkVEDflULG5+ZtllXAJ2Zc5wauOOZrnyjz3GmRKK40uoYetUS2nMxn7daKxkbbipDahdA6p7FcyZhJxuu/2pv8ADyheHmTrK/6Db+9U3EOseIu+2GHcd6v4efBsYYv5U/XJqsJpZDCNSD3bfFZb4kTh9txJOIcdvCtkiBYrWPJedxknOPw8qePMdWM6c8zmvlXxPPc8Q+I5ldjIiHRAANgvp61WD7svF5wEfEPxRe/EU6W0EXgWaPmKAcyRyLf25CtFwrgHz1vG1woiUjdm5t7DrS7g/B4eHBZ7xNdxjUsIwSPerL3j85BViYtRxojbc+5oyl2dRKRusGnit/hv4ZGWWP5k+bJXxJW9h0H5CmNnxM8RtzPHE8UROFD/AFEd/SvmpDPrWGZVnc4UHua+kcPtflOH29uTqKIAT3PWtY6glsukOF2pPe8zTaXYUpvSN6nyaL8WxNPzNAznY0dcd6X3BxmpRLiu8fSrY3PSlTCBI8yAlzuaL4hLhgo5mgLhC7+Y7Yrs41g4+V2xrwu4YKsMcjaW3wDypxZwKjFidRrL2U/yaNLGupzsKvTiF18wHlJAPatKLvAIyVZNa10BsEIriTvrDZO1LrK6j8HN24Uk7CpyXMkjHwYyFH61O80UC7iYvliwx1qnBAGgag3ag5ZGVQTGWDVJb6K0QMAdWfpo0KFLHLHkmPI7VpvhzhckQ+evE0uw/hRn8A7n1Nc4HZSXSJfXkehCMxxnr6mnsj4FYD9EZXwKXXNxgHFSubjAO9KbiYknepTkVhAjcTZJ3pbNKck5qc8vPNByyDBGaRKy2iuVzvQcrgc6nM+2c0FLJkb1SKJyZySTrVBl351VJLVGurqJByPqk9yZZFcggE7Vya4Aiw4wMVGUBkUE6SKDmnYKUVA2OvPFSbGSCRNHFblgMZzihIGLvlMCoRxTSwkSqFVvXpRFibdLpIZGGOuTWNoKS5OkoELN2UUqvrrw7kQyB1Zt8EHNbVHs7eMHVGo96GvLjh2Q8rRbcs4puv7E7/o+b8aF4koMLsqdQOtF8PldLUG5fVnrTriyW91MJLbSwUcx1rOz8Ovp3KiQIhPIdqH6CvaKpl03Jlkb+HjZc9KMhnhuIdKkduVRg4c8DGKYl89a5d8ImVc2rqo5nejaDTCJDDBGDHJq9CarhnlndkbIHQjYGhIIiEXxsFw2Nu9NfCVArsukdKV0hlktkAHD2RWIfHMbUHb2Mss6PPrkAGMsc0zgaKZC42086XXvGQlwsMXIHBIo7BoOvbdbdFeMHHXFB8Q4tNHZrFaAMzbcjyoiS7DxoCfr5Cr4bBFKMQAx70LNR7glmwiMrsWdhk+npVEl9dOXCqDGjEA98Uastza3BHhgowwCKWvdCC4EMi+d2JAA6VjBMPFpZW8NAFAHmY96zfELbiEnEGdZdSk5DasAVoPBV5hDbQNJIRkgbUXw34ULSmfi0jgZysIPlHv3popk5zjHYJwODiqsj2ihsHEjH6WFato2Aww3PQmrwYbaILEiqqj8HSkvF+IRMgR2zn6JF2KmhLjTX7OXl5E8sPMLIcjK98V0atyMMB64NZAfE17AHi8ddcZ31KCGFW23xffS5xZWz45kMVqT4mLFdtI1TOqSKhcK7jUqk7kdcV6F38yNtp3+1Zs/EVpxCJYr+0IbOUeN8sh7g42NMrWZWsklju2uUyVEhGCSNt+hO+9K4UUceqyA/FHEUTRZPK0SMviSuvbov35/lQXCkT5RuLGEzafLboF3kbkPzPXoM1rI/h3hPEovmL+18eRmYNqdsbEgbA9gKO4ZbxWjSRW6KkcXkRQNlGeX7VZQpJex6Swj5xcNxdtTTxiB2OWJBBNW8OseHvcILqTzDcsTzr6a3m+rBHqM0PJaWkrZltoGPcxin61ov2M7a8EtWvoZ4WEiK2vGOvStERIOUZNWQ29vAMQRJGP9oxVhbbmKyiBysXTSjkwKnsaVXg6jFPrhRIhV1DD1rPcRt5IAXiJeMc1PMf3qXImW4mhVccjmllw3lNHTSCRcild1JpRs1OKLvQHDbpdXDHILLtg1Kbg8CIxkvAkh+lar4XZXLXguBIAjZo2TAl1zqkax8nbcsa6G6dJnLV5aAYIorW0ljmdGlU581Vm5tpYMaVjIONuZqi/UEkkmQuclh2oHxFVSqKcnkTVIxvJNyrAWS+nSnnAPPO9Wrd3ETYjLlyMY50vhmaB8kAn1o/h8rEyzSMNJ2oyVATvQ2ikzAmdm/EM8q0Pw98NtcXKX9/hrZRmOIjdz3Pp+9d+F/hcAi+4jGcN5o4m5n1b09K2LuFHSpj2zjsFFL7qfANdubnSDvSe6uCzHtUpzKwgcubnJ3NLpZjXpZc0HJJvUkrLaPSyZoOWTfnUpZM0JLJVEhJMjLKe9ATS71KaWpG3eCNZnZRI3IHfT/mrxVEJOwYxM34gD+1c+XH/7RRK20mjWx3Nc8F+y/lTdhOptbiV5pkTxFVS3m9a7cubSMojrkjr0NYie7nN8z63BB2HapG/lkk8zuV9an0Y/dDKe543PKyROPDB5gYoyxgmA1XEmXPrUOFC4lhIU7YyCalHYXazu0sp09N6DMkMoYmQEu7OvQE7CqXSJVZzg5PIChIDdicxIQyHr2r00rrceGQSV35bVqDYVJNLHGPD8m2wxQtoOI3N4rSNoiU/SOtEXYe4gi/AyHPKioXMcOGzq5AdTWMX3FvKzLkjFQmhWMEeIzHHIDJqyw4fxK6fXdP4MOcqo3Y/2rR29hDFHpVAD1J3JrKNk3ypaMc/DrjwfEgtpSx3GV5UTbpNDA0t+j6gPp0HatfgRJpJqcciPsyj7imcLEXPTPl0vH0SSVbaIs0hO3aqLEGB3uL5Oe4UjevptzwTht63iTWkWtfxhcGl958Nxsha3w5HJW/vWprQy5E9mTsFvLy5F1LGY7ZBlF6mrW+IlWXDoxA2AFE8Qe+ghe2WEpIBsuMZpdZcEu7yNVSBvHY77bD3ob2PdIc8PvJriM3D4MZ+letFWnAbm9nNxcr4aE7YPmxTrgnAoeF2iBz4k+PMxHX0o+Ypp3OMcipximUayyUuRtVEotbO3so9EIBb/AHDc/eqp7kBWEcmh15o3WgbriTRObe5O5GY5QPq/zWf4hfT3GNgtxFzweYrOVaOd51sPv+JSRFpVzGQPOp60Hb8I4jxuMy25jitH3E0p2z1wBuf0oSxzxnjNpZ3LFEmOH2yWAGcfpX0pgqKFRVVFGFUDAAoJeWH7aRjY/gOxJ13l9czvjB8MCNf6n9auT4W4DaLp8KZyeeZ2/oRWinfAzS2QamyfepTm7ozk1oA/0nhgUrDZyA/SoSUljk/7qaScKubfg6cPs4rdo4911MdWc5znber7CyLus0mVRTkf7j/amTnV5R1p+OLrJWHZr5CzgN8ksL2s3kmgJLgn8zRPDX12PjsMGZ2cexO1L+PcOxm9tRpcromxtlcYz/SiormP5GHRhVVAuO2Ka6wx4q3QRNNzwao+ZQMdR5cq4lvNdeYfw4v526+wopLazgYNoV3H433P+K3yeSvxjgrR5JNo0ZvarYLd1Je5IJz5UByB71J7oAbHb0qh7nI50cIXL0XSunLaltyFYEVOSahJXzyYk1OUrHhGjOcSh8KVmXYHmP61nOKy6UIzjNa7iymSLUilmzjAGSaqtfgKXiOibi9y1unMQRAF/uTsPbehxRtlOWdRMAlxLGulZGx0waizMSS7s+RyY5r6yvwJ8NQphrOWU93nbJ/Iiq7n4A+H5UwkFxbsRzjmJx+ea6cHJk+ShpR9JOAOlVklmz1r6Fd//G5QFuG8V82PpuExn7r/AGpXF/8AHvGzchZjaiLO8izcx6bZ/SipIDTMkkck0yRRozyOdKqoySfSvqPwp8Hpw2OO64mBJc4BWHmsZ7nuf2o74a+FbPgUfjlRLfEHMpOrR6L/AHpvPMYlywwP5ulJOVjwjktklCjc0tvLoacBse1VXN2CDhqU3M5Y865pz8I6YcfsncXJORnNL5Zs5351GSQ770O7etTSLaOPIetDyNUnffG/KhpWwdjVEhGyuV8GgZ5uYzVs8uAaAxJOzeEpbTu2OlWhHyQnLwSRgH1P9vSj4ZEkUKW1LQayFEKugz3xVUE0cbgqCGY/lTtWInQ5kcAKsanlz7VVpf8Alpe11KrEeISCeWOVcNzJn/qtS9WN2Q04zELaVJJIwGddvWhYbmGS3YFFDY7U74nwl+J3Kz/N6YQNIGxoSD4UEs5RpnCfhYdaEXGsgl2vAV8N3VsLOVmbzLz7VC6vzkZlzk5wKZx8Nh4ZB8pbw+JkeY880AOCwC5Fw0UgBbGkk/tS4TbGzSJ2UbtJ40LMVPMdKPgtUlJkc+cd6ZcOtgSsPhqgHIAb1Hi6QwXFvag4lmcBQOfOhs2imHhklzh2xHHyB7+1OrPhsNuAUXB6s25NEqoVzg+RfKoxyxXetUUaOSfI2ywKEHlH3NdDZzgGqiWbbOKsVSMAZ+1MJfojjWm4371yMKwyCDg4271dpIAqI0xyKgQ4bJyBsKIrRMZxipAEb4rg54AqzBNEKIOiyABgNu4roaG3XEaqo9BQPFrwWQXUQA3I+tZq+4wxlOiXUuO9K5UCU+po73iYiG3XlSC54vOwcoGKru2Bmk0nEJbiUJu7E4XArWcI4I1sBPJNKJnA1aTge2KXLJXOTsyXEuL/ADNp4Y0MyHUGJ+mlSzNctlCFyMNLk19RueC8MvV03llFMepK4P5ikPxDZcHsrQfI+DazhSkSqMqWPXHfas40jrg7eRDwh4+G8ThnsZ2vL6PI0ybLgjGPStvFxqLwAeJaLaf8SKSwx0OcVjOEG4tHNzcwp4jPp2GCR3p9PxSxeCUSSBcDzZXfHel/6XcE/ATf/EHD4o2KO07qcBI13J6Uy4ZaTyxJc8QjETtuLcHIT/yPU/pSj4P+HooI/wDVLsieaUk25ZcaE6HHcitSxYnABx1JrLjSdsn1j4OuwAriLgZbmarjBkkYn6VO3qanKyr1x9qp+xv0UXUoAK4yDtjv6UusoRacSNtcRhh/29R2BO496qv+MQWF7bNcOiRtJgs52GxqzidwkzRXCMGeI8wea1NtbGlFpJhnFOKxWMTSXbhFUE7fiwM4Hc188uvjm/a+Di3jEA1BV1HzcwCcf060T8eXjzww2wKq3i4yx5gj/IrHQWtxdyCK0SSbBOQgyBz/AEp1Ussz+OEfQeHfEUXELQzEmNowPEBOwOAc+1VcQ+JBAieDnzMPOQCCN+QzvyO9Y5LCe28+mVvEbQQY1GRse526VOS4iZmivFWVZHGETOqPHUM3U7dce1J0zgp3xoZWnxFxOS9w5YK0iYUgYO2CD7/pWij4i88vhrFIshOlU2Oo+mKx93HaqgEXjvcqyhUbmFGBg9z2x3FfRfhLg8tnb/PX8Qju5V8se58NfXPJj17VnDtoymo7yxrwrhotVWW4w1yefUJ6D19aYswAqvXtXoxr3b6f3qipYRF23bOxLn+I3M/T6CuvUmcDmaqeVW2BxWZtlTGoFiK6XyTvUXbaksejxkAG5x61RcFmRlDaSeuK9JhlKncHnVGy59Tk0rYyQr4jA0eWgGVPNO3tSaSTUdjvWguXDbA5GOfQ0hvI8SFgMZqD2dEXgHbfpVTZG1XDlUG250QsElU6hhsAcxjnQs74B9KKmYLnJpNe3GSVXGarBWSnKkDXVwA2nc1TBeTWwdYiFDjB23xUGj3JB1996rcAN1rqUVVHG5O7CUmZ2OvODyzVzBDGMOqsOZqhIpMAMjKOeWGK80JcgLyI50GkFNkhJ9RJz2zVfm/mroVkBBYDpz517Qf5hRNZ9Pg4WzW6GQjbBxXHu/lEcsAShwMUcwnEKmbCg7c6UNFcRTvg64icnVtXK1RdO9hCM05EsYJZt3J6elekSOWWON7gBi3LtQ/zksaSLIvhoeRHMis/d8RV5xmZYgTseuKyVmbo13E+L2/BYQlpC1zMSA7DcJ6k/wBKVWPFLe9+KrTU5aaRsDPbBoKG/sPlSj3DOqHVKwG1c4R8vLxe2vLWFlWGYMHI5jlTf0RrGD6A+EjLMQAOZNexVxQOhDKMHO3pXgoG1VONrJWV1DDbirFBHKvRhivnXByevSrAtGjIqiR1eQs5dXOQD+HblUlkjed4Aw8RQCV9DVrRhlKnODtzxVEVtFaK7RiRyf5m1H2BNagkGukidIZ1ZHkcrGBvkDrRMxm8M/LlA45Bxsa707+9ezWNZnLzhPE+KT2UnE50VInJaGEZX7k8xR5+H+F6s/Jx7chjb8qaajUWOxLMFUDJYnAH3oUgNXsrgtre3GIoI1ONtKgV67u4bSAzXcyxRDqx5+1ZD4l+NOHQwPa2DtcTk4MysVWMjqD1NfPuJcYv+Jvqu7mSTbT5jnNFJvQyils2XHvj3W723C1GjBHiHr61iZri7nuBNPO7yDdSx5e1DJzAq9C2CGO3rR6pFE/AwuOLXjIBHcFMLuE6mjfhDhs3HuORQ3MjtbRfxJgWOWA6exNJlg1nMWdfMqBmvr/wXwiHhXAo2jTEtz/FlY89+Q9gKGFhD5eWaDyooAAAAwAOgoSacsyxxnzOcCp3Eukc6hYxB2NxJ7J7dTSPLpDJJK2EbRoFXkBS+8l0qzMcYFFXc6RISTgCvnPxN8VSid7GyUmQnTkjnmhLOEPCP+noV/GnFBe3MVpGykRklj0B5f3qPCbziYubcTXsZiiHiMjtpYrg5Bz0xtml72EUBVrmO6mkY+cYCqW2OM7nY5B9ulMVLTvLITJJMrFY5YhjTtuNyAACMevttWaXWjdm22PfiLQ9hFcNGk6QsNSsOYwSp9j1+1Zm1EfhuJlWO3BOtCW0oRueWDgnHM9du9W3E0yWwtbhrZVH1xKxBznOCv6Clz+FLIklwWjDLg+GwOnHLbGTy/zQhGlQusBM7eBcr4Ak1IpyxcaWUlumT/ShQvzDYLBge2wXfb969JdITrBLOuG8y6ck9gOm3etT8I8MXjt1I96QtnbuGkAG8rHkuOwHXnj3p8oGGMv/AI9+HpFA4vfAMF2tRjPoXPTpgVvSoxkivLJBHGkUKqkSDSAowAOwFRd1HmkAGehouhVZ1VydTcv3qMs2BhdqpkuQc70OZtzvmkch1H2Wszndmqpic86EnvQLiOFTl33wO3eiwDjzUl2PTWzqgmuupxVsaiuzFFGMjNGsC3kDc461S+42q18E7VBhgbUjKIX3AIBHSllyMqabTgEGltxEW+k4PUVJrJVPAm8QrIV7V2R1A37UNxSKaFvEAOB9VK7i/Ij6bVSML0LKaWy7iFyqeUMMnbelEyMX1KwboaHmmaaTOSe1dDuAADkZ6V1Rh1RyT5OzLyQASYzp9qlGFVlCqM9yarieL/uIx35d6ueQgsdAOBzb/FFgXs5fuXuXBkZ1H0sTz2oZy6rk5yRvtVmQRrLZ1HJxXTG5BKg+/PassAecnk8Eocrk4GPfvXhbqQD4w39alBbGR41VgGc4xjH61E6QcYO3Zq1+jV7Pq19xGG1iIkBmdeenpSq2vZOJpKXcRQHkWGDQsjrM+bK9EjvGC8O2x9KT8LkktpLibiGUOogB+vsK5lnJ0aJ37cWvJ0tXYLCxxHJH27GiZeHcJmtEguMxXEflMhO/+aqW/kuV8Wyt3MYfAz+H1NVrZR8StJ7lixli3wh3Q+tPn+C4/oXa2vCbaF7SyujMzHE3UmmdxxFrO1W2gt1WQ7R7cxSaxnt2lgW0ObuXYnRvt1NE8ceWGaDw3kEnLUwzqJ/alp3ka1Rtfh/iBv7ICXAniAWVf60zK7184tOMXHDbuadghEajxGU5wM7A1s+FfENlxGENrVHI5Hb96rGWMnNyQzgbAVICuAhhlSCK7v2pyR41zrUiMbnlVc0sVvH4lxNHEg/E7BR+tY1Ha8F1HAGaz3F/jTg/DMLG7XkpGQsRGn7msTxj454txENHA4s4D+GHYkerc6Gw9Tfcb+J+F8GRlnmE1x+GCIgn7nktfNPiH4r4jxp9DsIbcbCCIkL9/wCakJdnYnVnNc05NMo+wpECSx9alpIG4q2MAZJwPU1PyhNP1Anp1NGwpFABILAe2KugDy5VQS3XHaopDcM/hrDIWY7KFOaZ2dhctcQQJpR5ZViLaxsT3A96EmNGLDvhzh8/GOKQWdtI6w/VO4/CnX7nlX2IqkMKxxqFRVAUdgKTcGj4J8Oxjh0NzGbpj/Fdzhnb1P7Cq+MccihRvCZXOQBg1OUlErCMpneK3TEpbwbzzuI0Hqac3DRWlvgHCoAua+b8P+Iom+KlvLlwYII2CKdirEY1fbJ/OiuJfE095Ezxoy24yQxyusDscfb0NJbS1kt1jJpXhBXGuMSuZBBIMA4UZwOXU9uZ+1Z+KISwsYJfEjQ/xXcnSzgAnSBu2+DzxyqD3+uOOGVQiOup9bOTpOogDAH+cClztM4fUR4A8yKiFFK8sdAMZznHPvSqL8mnO8R0RvzbrLMLZtOcFGz9IAH0gciSTmhBdX0lt5C+hPx4+lu+eeaZzylAqRwhAmZNZfXrfA83LBIyNx26Z2AjugJFkOgKpWMhl1MFOxO+QNqqtEWs7Kj4njh1ZxKfpaSMHbHM5HrzqHhF5C0zDxZMsAwIBPXc124bw2RtT+KpB0nOnbkfvz+9QuJXldGOdAzpA2PrnHU0yFeNnC2Qd/bAAGfan3wndcW+bfh/C0MoufM3L+HjbXnpjPWgOCcGveM3Xy1pGQBgvKykLGD1J/p1r6zwPg1pwCyMFr55HOZJSoDP+XShKqphi2nYRZ2hs0BmnM82MFzsF9v71CcyNLpY+U8jnr2/zUppCx2zvsaAuZ4rSHBfUx2XG+Bn+lRbSwWVydvZdIwTIyTihfEkmmMNsmuQ8+yjuT0qNpHccSJfLQ255tgZb/x/vTiFIbWIRwIFXr3J7k9aCV5GbUceSu1sorTMrYedhhpDz9h2Feklw21cll1bZqhnUDOaLfhCJeWde6kjGFFDm4Y7k5NVy3Ef8wrselhkDbvSPJRKloIhJYAnnXZ2K+ma9DLGmSxGBVM84lfyjy9Kz0CrYNJlm3qvwizg77DFdyHlZVb6TvtvnPL9KITGcUiQzYj48vh2ErnAaJdQ7MOor53PIZWJ30nkK3/xpcxpwmWEECVmVQOuDz/QGsBjAI0kgV1cKpNnNzPSK1G+cVMbHYCuqFbrsateLw223BXIODueoFWsjRUoIO2SKsDNpIDeU8xmqiGBIUHfAxUgUTzbNnnWZkSC6mB1bAciKg8hV8c8muqS5I8ozyycV1k1AAAFum+4rB/h3X5QobJ/lxyqWX7GqMGPmc5B9Kj4inov/wDNagWNbN1kvQ8tw0ZAGHXl98U2t4ru9IhvJo5bSQMdbkak9qld3VrfEx8EEcJCkuJFxrFUxcJu5ovBlnXwMagsYzgnvXO850dEf/QteIcOsOFva27GMDcvnOv3pbdXUs9lpsIWjE7gTMh/6gFEi2srW/VLaBJ5Xj86v9IPt9qaQSQFkMBjUxNqdVPmUAdB1oWkFpvArs3tzGsVpKbaaJjkuPMT3pnaMkkaxtNPPck6mYLkH09KEt5GvLu9cwyNIwBfWg2X07ZpoUvHa3gEot7UJmRo8alH4R3rSNETX1w9ld3Bg4YjQgAM+oEq/r3oM3k0/EIrm5nIhQY0g4x3GOtQuFNndzwrYtMod2BmyQ+dgcV4WTNZD52AIZN4EjODnvT42JnQzfj00Ehbhl9dKHbCxbt98HlXm+LOP29uC3FAWIIKsg1A5pACbWAuAyMwK7PkkULIfG0kZZyAAOf3poxEk0Oj8X8bISM8Ql8MdABv70uuL2/uE/iXUrDSFOs52qDeFGFjijIcjzl99+uO1V5YvjOx2pqQpWVbHcnkSaiSw2PWpyoVJCnIGwNRKacat2I/KmFIouGJqYXPLn6VXqwdIGc1dAjsMrqJB6VmZZODLFY0AZ3YACtTwfgNvBbrd8QkKP4jDSWK6AAex6+9J4o47KIS3lrqcqSgkbSTnqBUJ5mayt2id1VCTo8QnSDy6D1qcm3hFopLLDuJcbjaKK2sItMQJMheMefJ6dthz575qdneRwN81BB4MiupfSNJYbYVcAj742FZ6MOJVCqWY/SANzWhii4hdaLAZ8WF10qSI2TAJG3MnG+fzoSilg0ZN5Ft9xCZ+KG91N4uVZdWT0HP75NHPxG6WFbniDLJHJkxxRyYjY58xYA79se1KbiN5eIMjK/jSSadJbfVnGDTkWnhRNZXMogUyBpA5+iIdlPc/c4zRaWAJvILHdcOiuxKsPjkAA5GlD64yT/Xam1xPHLbFo2gZGPmKDd+QCnJBI756VbPw+z4bwpbyfDfMPpChNICA55E/VyHpjlzpPcX0b3EnyfipE2yIEDEtzJ0ncD1GeVJvRS62D3CCOUtYzyRq2SyYIYc+R6j6qqiRku1UyI4AySQSDg598f851P5aQMHUTK2Mq0oycAbnB5KTsM1OSG4a8mWWLxZWA+t/wAWx9icdDyp7FoojHizFprgxBUBLO2SduS/vipSTqjy+CCpkOBJnGwGCG7896tuLQyGNbkubiRxkg/SSSApz15YO2BQt2YzK6w/9NSACdydsHJoqmwW0jk8bhgCVOwI0sGGD9/0p78LfC0/HZjI7NFYRnEkuBlj/Kvr69KD+FuCNxviwtJPJbxAvMy89IPIepO1fXUVLG0S3tbdYoYlwiKcYFZugJWyNnZ23C7RLaxhSKFPwrzJ7k9TVUlzlyAdsZBqtroSqGQkUAVmubh4LEgyE5aQ/TH3z6+nrUHJvR0RhWy+4vlQqihpJn+mNBkn7VOHhsjATXccZfn4Q5D3PX9qOsuH29gGZcyTv9cr8z6eg9KnNJzwcVuvsXv4iUzTSxqCqBlHNRsR7f2qlrnO4OxGQahLOkbeJI2l12Ixs1BSSyTOY7eMs/UDkvuegpXIeMC6a7VMsSAB1qEcF5f4KgwQn8bDzH2H9TRNlw5IWEt0ySy8xk+VfYf1/aj3nUbcjWUfZnKvxBIuGWtsM+GJH/nkOo/2quclmwDgVbNcjSd8UrmvVTbOWOwAG5rSa0jRTbthBiX8Rz715QCcLQ62fErkayqW6dpD5j9h/XFErDJaJ5pUkPZVI/rQ6hvxZ6RMMrecYJ5cjt1qvxlDMRk6duXOvXN0GUZOluo7Vl+NfEC21vcQwELMrKsZ5gg8z+dBK3SM8K2Kvi25jueNYjAJjQByO/T8v60lVXOQqHHfIoi0gF0HnDoTgs5kfcmptCySlopmVwp8wTGVx0zjpneupfFUcz+Tso8FnXEUTHVvuADipPAkayyy6ckjQqZOQa6cRyRlpjhANPg5JbHPtp51ySW0ddfhyqWYLpXAAXHfqc4o5BSoriuF1DUMKowy9G9yOVdmtpUgjuBAwgk+lhuDj25H0oi14RJMShEkBZisTToQknpno2PepWdjdW8zeA8bMrGNgpyrA8wfQ1m0tAUW9i0KwzhNJ+k7V5i7PhsA8jjvRTq51OzkBGIY4B3ztv16/lVLx6wAQ6kHfNMmBoqcDVgnYdRyND8u9EAqpZD7HP8AeueG/R2pkIwmymksJmYqMMhU6hnFGrxSSe4UNI0UbDDLF9TjG33qpI2uWYzRllJx40Z+r86Ihj4bAUktjcJdxElTKMK3uelSbT8ZKpNecBvC+Ci/u4Vu2ks0lGUl56TnGCe5rQ/ENjccP4bbcLs+ErdZTHzQO433JxuDvWXuIy0EBSXxrw/X/KuT5du/rTCbiPEXtZLPiF7MbxgIR4ewRc5BJHfGKRjpehk3CeILw9rfxGgeX62jjLjT/wCXOla2UHDg11LxQv4cf8FznPiYwMg9KifiG6tJRb3TXIjVACxbBO3PA55qVvdQ3XFBi1mjhKmS5iKrJkL1yeVLT8jWt2JP9Tu4JvEeUrct5mlYZO/YcsVQks9xGVZ2cKdTMW5CtaeK2vEILl76NHhQZCI6KQmfLzpPNccNnstFla5xgugIDED96dS/QjT9ih5TM6x4woOAANsV5WzII1AGkYyOtMFtYGtjJcrJAYQWAK6tWTt225UFhkYJEsirIcAsmC3WnTTEaayyln0SszLvpxjtVZckkHGD2r0yMracDPoc1yBQWIbGobgGnwJmyaY146AbVNbd3Zgu/qSAP1qAXLBs43GDnFGz3EsMRtxF/Fc51gEtvyAoN+hkl5AIoj4razpIHMin3BPh6+v5XIXwYI28zSZGo9gvWi/hrh8bXIN0WGlAxQkZJO+BvtzGc1qeI8QFtZxtcrFBbhwqnXgqOhA674qbnY6hQstuCLdX0UU9sZbKBcK8/lLbfhHMb9DWbu7mO64totvGlgiJQBtLNoz0/anXEOK3FxZSWnBi97OQyyXZUKI1PTJwMnP/ADopsLD5SxcrEJbgr/EcviNRkeXVnGfbvQVJBu2S4fw60d/GlmaU7MI2DJoGdySOZ6cwKlxeyaPS8EkZMsuSxVcyMRjA79QM/nyqPEbm0kkQPI+kJpDQqcMwB6k55kY9KDi4k9vDqSJZH1FknlXVrYHmB0PTHqaC7N2N8UqDeHpa8IPiXYLsdbOxXJjUbADB56j7GoI5PDJrq4MSW4YJHGzaix04xgMOWc8qWym54hcsGkDkRhFHigBFBHl35+1UCBY4tTa3GSMoNsbb5/pinr28iN+lgJWYRl5JFluHdsIWxgAjOcDOD7Yrtvem3SZbaYKzxiNWeNckfi3wSM78ufenUNrYywSNbXC2ybBnkVfO4GwC4GDzOfUUPdcL4eDI3iXUrogYYIVjnA325D279qFoLTF9pcXWhVtInOlwWLHZgTsMnbfb33qVy8sEsgupmhus7iNcBeeMnnnc1d4XDIrhX8IBQQdMkmoHPb7dTVKXLLKYLdQicyJmHMciMAZO/XNbD0g5W2K5NQYs+SG82T1qyBGkk0Jhi42ycZ9KIxG1u7FlUggHfJJO+2+4HWq9CLGNRVQCQwznB9qftgn1yaT4F4qvDuNzwXR0C4jCKzHkynln7mt3xHiUFvbGWSQDtvzr486KSxc+H1wQRt0xX0L4P+Fnjgi4hxtpZncB4LRiWC9mYf0pWvRSEktoZcMsLviEQnuS1vaNuADh5PX0H608BgtIvCjVY0XoBy9a7c3LYxIhUMcUvuWK+cHGOZqTqOirubyENcgkgf8AuqZrgKCSwAG+TS6GaW4ma3sozK6nB6KgPc9KYQcGVT4l/J80+ciPlGv26/elVyC1GOyu2t5L/DBGjg6Snmf/ABB/emkVrb20eiGML19Se5PWvPcaTgiqXuMnnTKkTbciF3LCo/iLkgZU5wft60se7jJ1Qg6HGcYwAe47Z7Vbe3MKDMjKN8gHv3HrVVvw+W8YPMskFvz0t5Xf7fhH6+1I7k8FY1FZB41nv3KW5VY1OGkbkPT1NNrSwtrIakBeQ/VI27f4HtV0vhW9tpA0xouAF6D0pLxK8Ft/FW6LSKuoIf8AuLRpRBbnjwOZp1UbkZpRdXSpICWxk79ves9d8abxY43ZdXNQx5djSu+vpnTXMpkh14zgEFQf+da1OQMQL+J/EKxzzLj6HKgA7t/as21w9zI08hUvnIyMgfbrRMkniyJvEExoJC+U7c8Y571RDbGSYE3CpEr4MjdB7CrQjGJGc5SYZCUSEpBB4k2PLrA83sMdvXpUFYpCgcazGS2mSNiGGcHr0wOlUTRpFKHjnhmBxpKbZ9weVS+ZfwmEi+Vt2OkEkEYA37c6ahbOTPas48J/EOwGINGD15E5+9T4bdRxSs8keoHyBEOl8e+Nge436bUNG0SeIqjyAgqxGGH74rmWRWJjZcjdt8qc9f1FGhbD4LuCKB0mCguPKIyQY2G6kb89/wDnKvZsbZPEW/eaVFyVKld+g3G+5/el/jlspI/lG4O53zz588VZMLGQs8ayoTIcZbYLtjv61uoewabhp7IiVCwfyKGAJ26A9D2x65pfcB1YsuVVdjk7girRIoLorKW1DGljgex9/ttVco1ZVkIlViXOdj9v+ZzWSozdopDgqTjcj3rhMROSh/OpBFVcg4yf+YqOle3605M1Mtp4QWztg4aEh5GVCV1AdCOdXx8Je8t2m4ity5j/AOmpbQG37dKoj/1hrmeG2eW+i3EniEpp7EHO1DnhxvBE0nzVmQmC0v0kg7tq6moUdFjAWsZeZRwFmlfAWRbwq6+p6VW9touDCkiatalneTU42yRgbEV2CKzmtJ7m0uZJPAXSVbyB3x07jmaU8TmRWFvAkjRhVYvK+TnHUjtypUrdBwlZoLluFylzcxwssbkknJY74GNXL2pRLeXiQ3TWOrw7nZyI8hVz+HH5Gls0UjgSMPEUgBSM+Ynse/pVnDYb+7jSOMssURLoCCFz13HWio1mzOd4osg4W1zaqlpBdPOzZkJiKx6RnGPWn0EVgeC2/DXiDCOZpHcDEqgjY55c9selct7o2FyfHDsgXOgOWZF2+oZxk59aEueIx3Max3LCVpFEhhjQN6gbdccxmg22ZJIvukktuCo6Wz3MeNRkkOCAD6dNxSOW9ur6V5p3WNDtt9I26AntXeI30swIhiEUQXQEIxhexFcsbO5lmRUtAJAupTJ9OOed+ftTpJK2I226KStu7RJGrBzzY9uho7h3Bpb+ItAi6gN2JJA9eXSnicK4dDGLi7ZBNGpkkndS2SdwNPIY7VU0Bk8N7a7aKK6BkeTSFCoBy09By5UHL0FQLIeHcNtZ5FRNVjEo8a6c5Lv00jmvI8xUGv7K2u0nsYjJol8TTIgy+ADsTuN8b/2oGa2v72O7vRcRixthqDp1J7bbkD+1CQWd3cSRte2s/hJGC5bqo38pO+TvsMUK8sN+Au04nPYtquQJ2Lai2vUVBAzkfp/6q5b9+NTrLPYWqWdocsGdstjcALnbPt39q7ccNaawmmuZFiC4kjt0wZHb/cwBPf227UTFZw2drb2cLeHOWMzMX1OpAGoEZxqAPtj2rWkg5bF3GpLy5At9lgjAxDrIAYkncZznrvyGOVLL+6LJGHiLfL4jVnZsEj6sDOMewFNeN2o0W80uRFgqz6w7IoOw2bzHfngYzSxIEveIeDA5eLQVUnJWMcwCeu5/XamiLIEByi+VmYHOVU5B571ORJAdcIcxEnw2fYFcA4rR8P8Ahq4u45FiiQLDgNNJIRobO4IGcnGOnXeocVsOH2VwLRG+faFSNIYqRvuM56Zzij2B1ETQ6HBuYTCuCyoO4HPc8qplgjtnaOYF5CVxoOAoIyfuOWKf39vMsMkgktdMo8zyzEqgGPKAQDvyz1xtS1IDcXMjXE0UqRx+IXjPliA3xvgZ2Iwc1lIzjk9cypDdE2hZWJ1PGzE9cj32511rltIxLIZvp8SR8FB67dyeuaGllVJFlhnLAsDuvmGAN8euT+VD3Mkvm8RxuM79f+b0VEDlQ3mMEYtY0smuJbjSHnAJLkncD1II2GKX8QtvAmZVRo9Gcq7AvjOBkDl7UXOqyxxwxXKyGNFVkj8oVVAJbPI5/OhZEWzuSrQRMEcNgt9Q9Ou4PXehFhkgRP8AdqPQHpXWIEpwfMeWTt686unit2dpLXywuxKIzbrvyPry5VyO3kmZgIsqo3YAkL609onTOvNiTMmXAZWIzsf+b/nX3CDiEVxEJYWUo4DKR1B5V8MkhnVFLx4BGBheYHXNM+FfEd/wy2MKHXEo8gLbr/ilae4lIuLdSPpvFr5V8rMMDdifwgdaH4VD/r9q100rCzLmNFQ4MmOZJ6DptXzninG7ziIZCTDC3mcFsl/8elaP4G+IEt7BuGSsEaNy8Xqp3P5GpOP+pF1NP4QPoUdvFaQCKBUhjXkqLt/mqGmBBzzGx9aAbjEdwrBXA0fWx+lP71kuK/FscOuG2fxWBIGnfPueVZyv8QLjrMsGnvLpYAZpnCxoDkn/AJ7Usi4lccUuHg4VH4oXZ5ScRofU9/QViLjiHFeKxpHLK4hP4FPP37mtx8C8Qs4uER2Togkgdg//AJZ50Olfkwqd/ihtw/gtpbyrcXsnzl5jYtkKvoo5D96OuJViBxgdqpvr6NiArKApyxzsKzfG/imzs1KKfGlPJF3/ADrN+IgUW/lIY3vEUVA2RpPU9KwvGPiFp5HigbxUGRH0wOtA8S4pfcTk0yAxRO3ljUY+2aCRV8REQBQzBSx6Z2pocdZkJLk8RGFqJYoPmJ8tLNkhSucjGw7j7GoN/G1OpnDlRgAeU/2FSuZVjkKoqrj6SgGPY457VS9zM5bWQ6N1I3Hp3P3p1nIjaWCEZGEwwGHBQkaiD32/b0qfyjLPG8c7xyMcnKlNj6/n6UFO7+UKx0Hz7jryq43zSENJ5nQc2/Ftj/n2pqfgXsvJwiJYSzl1kZshQRuM8uVXospXQT4WrOdWwI7Hr039RVbzawGZFIBDK4Xkc8uxrkytE8fjsumTDnSc4z/zlWMEiBIZBJcM0gXYqqjSTvyPb1x12qm8uGmZcshHMBRpCb8uxqEzo/8A3ELKNwkWBj0xVRdVKZ82ls4z5CvbH+ayXkzfhFzQRsQsQBc531ajMc48oxty96mbFdSKivEVALs41ZJGTgDtvvUrEWoufEnjQKHysRJGnOOeeg9TU7pvlkhMVu0ZkUuJNQYk9wenbHb3rWzUgDSmjWGDDJDLnl+ddGwwzHQR+e5x+1TlkgeJTDCyS/iYtlT3wPuKj4ZMRfAAz35/lTCleCQ3kIBPuM1zTN/P+lWA+UZVt8farPCkO6wsVPI+Edx+da6AlZrF420b28FqnkcOWOcvuTsMjpzpm00Zs4vGkW5xIAIkjyrZ6N2yRSleL8WvVl1W8Soq+dQgUxg8slts7cqsTjfjQxxTzQxOEGlYpBliDyYDYZrmp+DoOXd5bi8ljlWFILZC/wBRVhnbAUYzzxS2a8TjEk2uILaWxVmCnmOQAH8xNNjw6G/DTNFax2cZGXc5ynNtG/7V23sbSSQ3nCZWkhjfaOQYDY3xjblnnk0UzNOxelpNxS0QSpNaRrhkVEOknkMDkfU7YpzaWMsLx264inC6UYgBQN/q/wAUTJMPmWQ3cSzTIp0xjIVcHm3I/pS1rS3ikM8lwiyqhiQzMRqcbnOxJ59KDCgmfh1o4aJ5mV2GXSEZZic5Yt296zVlYC1uGJdZ3SFnUJsgycAlsj9O9HXH+qXDXMcV8UhfzyIkbKiqRsDnBHqPWoWfCZElDT3kfgzAsDKuoEjPmU9AMczgdKZYWwPLCuFW1tEyXs8Vv8yy5jtxbFVByOpxk/fG9F3Nys9z81a2cSKcqyxSnIOwOARtzGcbbUSStwsUkbq0jKAQISHbIwSCfp307gftSfinAxaRF5pLayEmVKyyMWc532Iz15ilWdhutFnD7Kyhe4Xi8lzdW8czKRBMMHIG7b6vsKa3T/DU3hoJJ3hKawmMg5OATqA9sA1moeCSI6TmeJ1Zl8MElM4Oc4IHQdaL4jaCNLieZolhAHhCHDPGPbr03z19aLAkNPnuAy8JWxgv7iOCOPDOtphEJOBqG+/rnpS6S24NExSw4rLeSyLrCvEzFcdRjYEb79MVfaPLZf8A1Evg0MsapPokRVO+y4x6gbHPr2CkurVZCbeIiVhjKvrYleWcEDucDPTejfoFPbGsl5GixRhibgfR5VxHnbJ69NznpSe9u1+duJ1diFXwUZWYaiBnIG/QrvsPTeq7bhV7xDiLlLMLHCQJDOzDQCM6ctk+uw60Hxfh8NuY1gvI5ioAkVQNjgUVFAcmVvey3vgW8jjw48FtTZ1t1xnrudqHkZ7EskkJ1FyVeQHDL6D+tRs4bVxMbhJHWNdWpDgex225/f0qU11IoeOOUyRO2ACxOw5eUn/mKpWaRO/LGXDuOXNuhkhS1iiLHOFGc9Nyc7elEfEV681/bXROoywAuUUYzkaiQdgdv050Dw//AOzZi3gijacS7BQSUUgAn2P6fenZ4bw1OG3EKtLPdzOqp4pYLbr/ADZ6k6eXP0qbpMqraFst2ltP83Oj3LAaYWbyhzjAPqowPehYuJxyDFzbs0iDVGYjjL8iW68vfH7NpLVhai5uxNfQSDwI5EQAq6bkEk5Udd/WqZLewilQ29hoGjVJJPdao0GdjkDc89hn0rJryFp3aF1v/wDkpYoVgypOmMRLgk5JIyffqa7fWMq3QSe3lhaPGERdeiPlkkcz/wA2p5BdcOljeCCPxmU5lktrUxADuCTkfcfag7S0hVZfkblCEQuY3+s5XoD6ZOR35Vu2QdU0AtMl9cRmKKLGR5d9ZUdB6kdN6BSWVSPl3dEZxkc/Nk4++9MfCeKOaZ7qIDWCjsMyNyzt0X19DQUZ0XbOQJyVYuqgYAxjVj/FMqFdsnY6fERZVMqyDDZBGkDrkculNM2KW4EZRtZ0tqYseX36+2aTzNPbQeEr51gPmM5UgjcHvVUiyGVfFOWAVD5uQAwOXYVnG82ZSrFBUG8iQpIDhSuogBts7Z/pVLQorEOvhyL5TrPbnkVbpkezSVp2bAYIACM4I64xsDmoYngCkt4sZByNRIBYdfXbP2ogIrKisIoyRjO5AY4qK2zPl4pFJGT9WCp/52oqN4IkEb+GxIGcjVjbqDsMZ/xXPFBjkdkgMakAMigYzz2x/b0oX6DXsi8l28ZjlvZSpG6lzhsdD1Ncms/AgjlUko/TA077++akkcDlNMkjEHfVuCBg7ewz2q1fFI8OHT4es+EGHnA7Bsc6GtB/LZXi68NYY9KNIdOQQCfvntUAj2UhewunV1OJAw5ds4yKvzcIryLZwBlIBR8MWyT07+u1ejMMwjQLGrqApUSHAHMnGOY35Z51ja/pTccQ4ndKEnvCEYZwhAH6e1DrEiZBBVyMkk5z96J8Np2YxwmQ7EMgJJ9+3tUSjoSoGpB3XIGRyJx/6plS0B29kpo5XhEg2iVgMliCc8+dLyDq22NMFB8AplHCsCGXbpkgnsKkkixfMRlbdzOmhcjJQAg5B6f+6ydCyVi+SV3Osnmd8AAH8qnFIvMtlttsZztUriEasKFXbOxyP0qhIGywJJIz5Rz9xTYoXNlpeElY9GoE4AJII3710RQo2HYo6sQVAydvX3qTRiKeGeBJJMHUdXmz6bdNjUIBG8gMsbMhGpsEHG/Xtv3rBJCJ23WBzG4yDjODy5+5r13BbLceHCzBlfBLtkH74qx0hAJgD+Hg6cEas7bk9RnFRtYLgO0kRUD6TrIznnjH2+9CzUBuh0Z3z3ouG1Mat4itqjbBQDO/rzA9KnNbIIdMjsJgQMNgDlk7c9qYxvHHCIFCKo+oLJp05GCSAM9+eeVaUvQ0YZyCmGKWVylvLGFIZ2OMbkbcsY/56VBYbaVySuuTOXXGEU8sZHX2613UYE8OEFcBmFxjGpQDhSM45j86q4aPFllRrZ5hp1PjOcjP9SKHgz2RMULSjQ6JG5/ECQoyQOXX86Jt7KYu6hJHAJ85XSMdM9gQefTaus8s0bwQxDynV5GUFdOfvnf2qS+JGY0lhSLAMitIPEyD19zjPP2rWZJAU0DrldBQ88N1PqTjoaGEJxvcRA9iT/am6yQ307qEiWMRkI+Sqg5/Fnlz6YpeVgyczkem+36UUwOJ/9k=;" vertex="1" parent="1">
          <mxGeometry x="555" y="322.95" width="190" height="107.05" as="geometry" />
        </mxCell>
        <mxCell id="ChS81yBTxNXNN1gPd62B-95" value="" style="shape=image;html=1;verticalAlign=top;verticalLabelPosition=bottom;labelBackgroundColor=#ffffff;imageAspect=0;aspect=fixed;image=https://cdn1.iconfinder.com/data/icons/instagram-ui-glyph/48/Sed-06-128.png" vertex="1" parent="1">
          <mxGeometry x="550" y="426" width="38" height="38" as="geometry" />
        </mxCell>
        <mxCell id="ChS81yBTxNXNN1gPd62B-96" value="" style="html=1;verticalLabelPosition=bottom;align=center;labelBackgroundColor=#ffffff;verticalAlign=top;strokeWidth=2;strokeColor=#0080F0;shadow=0;dashed=0;shape=mxgraph.ios7.icons.message;" vertex="1" parent="1">
          <mxGeometry x="630" y="435.25" width="30" height="19.5" as="geometry" />
        </mxCell>
        <mxCell id="ChS81yBTxNXNN1gPd62B-97" value="" style="triangle;whiteSpace=wrap;html=1;" vertex="1" parent="1">
          <mxGeometry x="720" y="435.25" width="25" height="20" as="geometry" />
        </mxCell>
        <mxCell id="ChS81yBTxNXNN1gPd62B-99" value="" style="shape=image;html=1;verticalAlign=top;verticalLabelPosition=bottom;labelBackgroundColor=#ffffff;imageAspect=0;aspect=fixed;image=https://cdn1.iconfinder.com/data/icons/instagram-ui-glyph/48/Sed-06-128.png" vertex="1" parent="1">
          <mxGeometry x="550" y="567" width="38" height="38" as="geometry" />
        </mxCell>
        <mxCell id="ChS81yBTxNXNN1gPd62B-100" value="" style="rounded=0;whiteSpace=wrap;html=1;" vertex="1" parent="1">
          <mxGeometry x="540" y="571" width="220" height="30" as="geometry" />
        </mxCell>
        <mxCell id="ChS81yBTxNXNN1gPd62B-101" value="" style="html=1;verticalLabelPosition=bottom;align=center;labelBackgroundColor=#ffffff;verticalAlign=top;strokeWidth=2;strokeColor=#0080F0;shadow=0;dashed=0;shape=mxgraph.ios7.icons.message;" vertex="1" parent="1">
          <mxGeometry x="630" y="576.25" width="30" height="19.5" as="geometry" />
        </mxCell>
        <mxCell id="ChS81yBTxNXNN1gPd62B-102" value="" style="triangle;whiteSpace=wrap;html=1;" vertex="1" parent="1">
          <mxGeometry x="720" y="576.25" width="25" height="20" as="geometry" />
        </mxCell>
        <mxCell id="ChS81yBTxNXNN1gPd62B-103" value="" style="shape=image;html=1;verticalAlign=top;verticalLabelPosition=bottom;labelBackgroundColor=#ffffff;imageAspect=0;aspect=fixed;image=https://cdn1.iconfinder.com/data/icons/instagram-ui-glyph/48/Sed-06-128.png" vertex="1" parent="1">
          <mxGeometry x="556" y="567" width="38" height="38" as="geometry" />
        </mxCell>
        <mxCell id="ChS81yBTxNXNN1gPd62B-104" value="&lt;h1&gt;&lt;br&gt;&lt;/h1&gt;" style="text;html=1;strokeColor=none;fillColor=none;spacing=5;spacingTop=-20;whiteSpace=wrap;overflow=hidden;rounded=0;" vertex="1" parent="1">
          <mxGeometry x="550" y="460" width="200" height="100" as="geometry" />
        </mxCell>
        <mxCell id="ChS81yBTxNXNN1gPd62B-105" value="" style="shape=image;verticalLabelPosition=bottom;labelBackgroundColor=#ffffff;verticalAlign=top;aspect=fixed;imageAspect=0;image=data:image/jpeg,/9j/4AAQSkZJRgABAQAAAQABAAD/2wBDAA0JCgsKCA0LCgsODg0PEyAVExISEyccHhcgLikxMC4pLSwzOko+MzZGNywtQFdBRkxOUlNSMj5aYVpQYEpRUk//2wBDAQ4ODhMREyYVFSZPNS01T09PT09PT09PT09PT09PT09PT09PT09PT09PT09PT09PT09PT09PT09PT09PT09PT0//wAARCADwAaoDASIAAhEBAxEB/8QAGwAAAgMBAQEAAAAAAAAAAAAABAUCAwYBAAf/xAA8EAACAQMCBAQEBAUDBAIDAAABAgMABBESIQUxQVETImFxBhQygUKRobEjUsHR4RVi8DNDcvEHJCVTkv/EABkBAAMBAQEAAAAAAAAAAAAAAAECAwAEBf/EACYRAAICAgICAQUBAQEAAAAAAAABAhEhMQMSQVEiBBMyYXFCgZH/2gAMAwEAAhEDEQA/ANfJdwrzYVSeIwn6WrDzXt5MNtvSqI7y8VsNkiuTszqUUbG64usZ8pApVdcSmkBI1H7UDbxyTnXJTe0tUZgMgmktsZJIBgubt+mB686nc8Rkt4zrUn1rRw8OVVB0jNKuOcN8SE4X8qNUDtZmn4t4rE71MXLaMxHBoX/S5CcbgelXJwyTGRqI9aNIybArya4kI1PnHaq7aGa5kEUYJdj15Cnq8O1LgrtV9tbJZyCTAAFNpAqweL4UlRBM0/mG+AKfcDuWjbwJG3WqZuPQrbkRoWbGKzkHG2j4qHYYDHcUM2bFH0qQB4j7VkOJ8Kja7MgUZPWtTYzLcW6uDkEUJxO2JBZRTSVqxYunQi4fwqBpvPvTxbG2hQaEUVkLjiF7aXP8ADY+bIoiTjN5cRad023xSXQ+zTG9t41I1jbpS28uDOf4a4XvnnWcFzcr5yhYZ5U2sZzOgLoykdMVm2FJE4FcqTyPSpOW7mrA2ASEyTS++u2iJwPegkZsuEDSuc70RCFhZVc7DnSWHi0sQOUOnPOjrS9N2+SMCmoF2aAXMSRYZhgjbG9Lbm4VssowtDyz+Gffliq1bx3BIyBQsyQDLaeNP4jMcelFQsUdU6d6ukjbGwFchRFlwxyaA2hpDGjgZ2NXuyxJuRQcfMaW2qUqFtjmm0LVkhdIfxZriurtgGqPlkAyatgiOcpQs1BqKgFUzQ620rkCjba3JGWFSkjEbZJpqFsqsbfwFq2XlUoXDE46VCY86SeB4gFxvS+c7mj580um3NQZdAzb1TJVzc6HlPmooLKpDig5iScDmaJlbaoWEXzPEYYumrJ9hToVmz4YhtuHwwA7hd8VYGl+YBLNj32rokVRzAxVDXaNletVOcJu520jcZoFp5H2IIFSVgfMeXSomQ6vKNhQbCkXW0AaVcjrmnTyBEApHaTM9yBvgUdK5PWjdIFWyUs3rVBmyOdUSPvVJc1NyKqIX4metcL1QrZFeZsChZqPSyYFLLqbY70TPJzqzg1j83c/MzDMMR2B/E39hQq3Q1qKtjDgdgbS1MsoxNMAWz+Feg/rTPFdrlXSo527dsxJjRFzjNAzSojnOKKfXIukUKbLW4LE0hQthux4e2Se1NuCSZlLSLgk7UBFbpEvQCiLeZVn0qd6Fmo1TXaIuOZpff3a+GSxwDUPFCopY86BvJUnBRcE0XJsVRoELxsfK4HWotdpEuXYADpXhZTDBwGP7UNfWRkjOQQayCzjcXiwSp2oG74nJIuEUnNU23CpWn0OcrWhtuDokY1AH3p20LkUcMZ5k864xTG24XbEtJJErMe45UWkEMBPLGaquj/I7IuOhpGMiVlxf5C/WzwShGx7VqDMksOrI3FY22t42bVzfOcnnU7y/uraMpENu9MnWBXHyX3lqst8xXkeZr0VlGWAAzQVpeyMPOME0y4ZI3zGuU4FCg3SDBwvK/8ATqie3kgTOjAHana3sAAXWM16aIXMZCnnTUhFJ+TOQ3EeSHbB6VU9tFPOJCMijZPh+UTaw4P6USvDZY123paY9oW3NnHoA0g+lQtIEjHIDuKJuUuE8qxH/wAqCCtq8+dVAITNbpJjSvKhG1WxGVwDRkTiMAkGh7nM7jy/esYsjJmAONz61z5Vw+Qu1WW6eGoyKKN1GuBjesE7bQsDuAKvlTHWr4GWRAVFWNDr501YEvIEltrGTRdvEI1xirfJGvQVULqLcA1kqM22WtMYwcChmkeYktkChr3iCRjYZ9KoXiQkj8gINbsZRGtmuNe+a9PVfCXaW2kdv5sVO45GkloeOwCc7UulOc0bcttS+Q1Fl0Uud6Hl61Y7eaqJW2JoozBpm8tEcEbRdvL/ACrtQUzbU1trcWthHLrAeQZINUROTGEN9rlKOCD3omOBXJfINLUZB5jjJ7USsj6TpI00wgdDokmEQIBqy7VYNIG+elKIYNMpkSQhs880U0pzmVtRogottZiLpQBtimLnYmkD30cMiNkAA4NMpLkGIMDzFLIMURmkwaH8UZ51RcT0KJvNsanZahqsvrUZJfWhElyK4zk7DcnkB1rWCgiCGS+ulgjOM7s38o6mtXDDHbwpDEulEGAKF4RYfI2vnA8aTeQ9uw+1Gk1aMaRCcrZwmoZrjtiqvEo2BIzq2rqmrST9qCncq2VQ55U+kuEyVIPvQF34AXVtkUKGTAUieYAHJHarorXRIGxsOdWW8igY23oq3USynJ5UAlV0paDSGznlS6M+G3M5zT26hAjGnANJflZjMSoPOjQAxL1VTGDn2oWWZ5XIRcg89qNgsC5Gtd/TlTyz4fFHH5lGTWoDlRkFuEgk3GGHMGiDxqDRhSM+9EfEPDY5LtDGMZUg4rJX3CLmC4BjfUh/SivRrxYyk4k0kuc7A9KjczytCdLHLcvSp2HDGCanajGstWyke1bBslHDVkCBic5G9EygyYBG1TSMwYU7VG4YxlWVck8sUvkbwcis8YZ1BNSZnibCnIPfpUk+aYBniKrjvSziVzIr6IgcHrRFKeL8VmgIMUmGH8tQsvjriEBCzRxOo64waDuDGU/jAaqTTogyVqkUmTk2j6Tw74ytbvCyAI/an1vexXAyrA18QV2U5UkUdbcWv7YgxXDjHQnIo9GtC909n2cojchnNVScPtW80pPrpwKzXwbx+54m1wt0q4gRfMpO5J/sDWgmnLbY/KklJLYk51ornsLfH8F2U9m3FZ/iVyljcCKYaXPId6cNOSMb7GhryG3vkEd1GsmM6WI3T1B6VPumCP1DTyK5OKRBQAdzV9vJFNgE1cPheCeJZUlJA5Z/rSyeyktLoAvnTyxtRo61JPQ6WWS2xp3Wr04mMYfANInvJjhNzVkUTTHLPjHatkNJjO4vtYIUZzS6Scq2QcUvvuLJZs0WdTCkl7xmW4Q6Do9qeMbEcktDi64tHHIVfzV2z4rGCdRxnlWRknZhuTmqmmcjmdqp9sn9w+y8EYScKSUHIckg1O4NU/DkZh+GrBDnPgqTnuRVtzyNc8tF47FF23Ol8jY+9HXh50slO9ROhaIsRihpTzq1jihZmxmnQGCzNzxUGvJBoE7ELjYZrzq0gwnOoJYXFxIPF+kdatFKsnPNu8BqXaun8LLN0ppYtcSRfxdhULC0SFAAgooyDUU5UHRslgjCLs+9VTh9IxUiCE571dBGXGH5VjCHiNvdXICrsvpR3zL2tmgmJOBgmmjpGqkCg5olngZHG1FqwJ0wFrlZBqU5Bodp8PsaAlL2kpQg6eleWQOMg0nSiimOYbjK860Pw3Y+M/z0w8iHEQPVu/2rNcDspeJXqWyEhecjfyr1NfR440hiSKJQsaDSqjoK0Y5sE54pEiarZsV12wKGkkxTtk0jksgHWhjNvzqi5uMA70AboZ5mpORaMCrj154KDwcZPP2oPhksN4RqYE43z3rPXHFnkZtZ1Z5E1TZ3MlvN4yNt2qvVkOyN7JbJCgIwD3qMTMCWXp+tIbTjEt5Iqv8AT1FPPm4kj/3dqFDJk0uJPFIl+2a9LfwISAQx7Cl0tyXcqo59TUBaahnVW0HY1tON24n8ORghPIHrTK44xGkeIjqPpWVewjd1cjIHevM3hShdO3XetYOt7DWuZri6LtnPTtVVyzO+Wxy3qq4uWjAMWewGKonjubpPIxBx0oDUD3nFntm8NcGoWPG5DKQy796Dls7lZSZoyfbejOD24+Zy0WVHcdad1Qiuw2TiOpgNJUDuOdEWrtOQ4z6DtV89vHKQirv12qcNq8C/wyfUGkQzZG64iUQxeEwYfiPKsve3+ifcZIrQX+poyoXzGlK8J8Z8vk0VSA78Ca6uxcbKtVR2ck4wqfetPFwKKJteOXer7e2jWchUGBzPen71oXo3szMHA5mbzA4qyTgUxbTCCT67VrZAztpSMnHM0PdXD2uNKAtywaX7khvtxK/hG0l4dJeLIADIqfpn+9PXl2PmIz0Bpba3IadXYYZlI99uX6US7s9Slbds4fqV1kWPKRtnI9apMpJ2NROTuRXdGCBvWo5XIuFxcxwyC1kCSMuAWGVz60qRbuctJdv51JB+1MRzx0FQuohLHpViC3Oin4Ov6Tkz1YNDPbOpUMC45jPKqo5ZAxypCnr3q6w+G4FYyBiSOrHNX3AIHhKBscE0zO9OxHxGxtrrOk4kxzxWfuOHSwsRzHStdPHFCms8z2NK5YpLmYKgOk77CmjJoSUUzONbup3FWxWEkuBpI1HHKtXBwVNQMgyfUUxisEWaFQo+sfvTvkYq40auGMQ2kMS8kQKPyoe5GxoxuWKCudlNRlorHYjvD5jSyQ+amF43nNLn3zUUdBRKaDmbc0RMTmhAPEuEQnYneqIWTDLSFEjV3UkneoT3snjhIk2O24o8yRZ04GByrvgxNJkAZ6Zp0yLXoqglmQZapSSLjxG2NEx2ZdsasmuSWbAFW3FFMDTPWky3Cj0pjpwm4xQUSRxoFjXDCq7riZhIjkXB70QFk0q6yM1WJ1II7UrgnM1/qJJUdKdSi38LoAeZo6AI+IXEEuU05I2zSmYGDDJk55AU1vvly2ISM96afB/Azd8QHEboZt7Y/wANT+OTv9v3plQrs0/wxwpuGcLXx1AupwHm/wBvZft++aas2K6x2oaaUKDSNjJWclkAFLrq4HLIrlzcc96VXE/OoykWjA5cz5JzQfiDuahNKTzNCmU56UEihlRHI2+DVyxzMuMHHoK08tikOQF29BRtpawG2PlG3XFdL5DjXGZvhavbSamzjvTeW7BUMmpj3q1bKMk8/tRcNnEE5elI3bsdKlRRaFWQM/Md6YRokiZUj0oaSMFfDA64+1XWyhBgE4oBLnKou4J7Uh4rJKs6LDETk7sK0bASLgZOPSoRww85E3z1pkwMX2QZtJlG/Yii5NazKsagg9qiyNLLmEqAOpomCGbOp8YHUUobJPaZTWw39artokVzpj2o1pP4RDHO3WqbVx5sg1jFdyGgRpVQ/ahoeIg25kOdXbtRst0oDRsu5pVJw/m5OlCc470f4BfsEnuLmVw0ajBOSTTi2VYrXxJSNWMmlyRSofJlhjlUnhumwZZAI6Fho5d8Rcv4cUZOT9qutCsKF5dnO5zXolSU+QA6etdW2MzkuQAOVYITDeo2Qq7nrVFykWvW7jPaqJZ1icxquSOwp3bWtr8rGyQxuGAbUy5JPfNLKVCT5FBWwCGBJEWQ4XTuKk+GOpNweooyWxt5lI0FD3Q6aXHhl7aXAe2uPHtm2khkwGH+4HrjtS9kzl5pw5Y42WKuRVirnbqNxXSuk6WBB9akmQQegNazgorLAbYplwOCC4uZBPGshVQyaum++35UunUK/l5HcH0pp8Npm6ml6JHj8z/imhllOK1ND0Roq6VRQOwGKznxNbxRGOZAVaXIYgbbY/WtIxxWf48VluY45DhUQnB9T/iqypI7+K3Iw5Vrm7EaSlsHkaf29lhVBQAgUXacHtHRuIXTC3s4hq15wXx69v36UNNxKFzLNbhYYB9Ck74HU560vgv5ov0PkAYwK9BDI/FrfDeQEsRSr/VY5ISIZgWxnnR3wk95cXMslxbTLGi+WRkIVt+h60A3RqWoG7+k0ew2pbfOAMZ3oT0GGxDdnzGl7jnR1xuxoKTYVFHSBTnnQiyNFJ4gjLAbbdKIuW6UqPE5IZiiAGMHf1q8I2Q5ZJDqCaKTZ4yp9jR0EUcqkiXBHTNTXw5uGpcrpJIzzpU6OZ9KHAbnvRoS6H0OiMZVwSKl8yhbzGksVrcCUeFI3saLW1vTMoYrg86yTQW0w9AjzFwNhVPELZLhdQ2YCiNPgnDEDbeq3ljMZOoEUUKxdw+zEeogg551ZxGFlUFcY7V1rhQCU2FGR2Ynt/E8Vmc8lHU0X7AK7Dh54jex20a4Zt2PRR1NfQre3is7WO3t10xRjAH9aE4LwwcOtfOFNxLvIw6dlHtRc0gFBsGyM0ukUrurjGe9TupzvvSmebfnUZSLwgcnmzml88leuJckjvQUsh70qRR4OSyZziqMnvUJHqjU1VSJtmtuYG8PIGRnFSWIhMAfpTG7T5ddGM9BivH+HbayBkDtTUTsXQWpRi0pwT2roj0MdOwqyK4NwCdJwPSpRuDJpwBQMQ8IH6hXAI0fGcGjGi1bAbd6oa1ij8zt+dY1lsMsa+XnnpXLiMyKQq86jH4GR5gKuluY0QEEYogBPkZYUzHJg9udWpLIE0Pz79Kpk4lEN9Y9BVM3EY9GQOdYNewtGTG/51RNdRA6UO/XFBTTyNCQjbnnjpVkNvFDAHc6n7k0GwpBEM8byYKnNXSMkhCscCo8NSORy2wz1713ib29k6GSQeY4FY1kzAqJ/D3zUJrUNalpnxiu2t5FLgbYFV8T8WZP4YPh9cUGYHjGsrBajnzbtXr2GS0XSjMzHtzq6xaNPMg846UR/Fkk8WUaQOVZGYogR3DLMuliOtWfD/E54+Ktwu6C+CwJhfsw3x9xn8qNe2lmuQ+MJ6Up4jCw4lFJbMqPEwcE8sg0Wk1TEnHsqNg0ZzkVEDflULG5+ZtllXAJ2Zc5wauOOZrnyjz3GmRKK40uoYetUS2nMxn7daKxkbbipDahdA6p7FcyZhJxuu/2pv8ADyheHmTrK/6Db+9U3EOseIu+2GHcd6v4efBsYYv5U/XJqsJpZDCNSD3bfFZb4kTh9txJOIcdvCtkiBYrWPJedxknOPw8qePMdWM6c8zmvlXxPPc8Q+I5ldjIiHRAANgvp61WD7svF5wEfEPxRe/EU6W0EXgWaPmKAcyRyLf25CtFwrgHz1vG1woiUjdm5t7DrS7g/B4eHBZ7xNdxjUsIwSPerL3j85BViYtRxojbc+5oyl2dRKRusGnit/hv4ZGWWP5k+bJXxJW9h0H5CmNnxM8RtzPHE8UROFD/AFEd/SvmpDPrWGZVnc4UHua+kcPtflOH29uTqKIAT3PWtY6glsukOF2pPe8zTaXYUpvSN6nyaL8WxNPzNAznY0dcd6X3BxmpRLiu8fSrY3PSlTCBI8yAlzuaL4hLhgo5mgLhC7+Y7Yrs41g4+V2xrwu4YKsMcjaW3wDypxZwKjFidRrL2U/yaNLGupzsKvTiF18wHlJAPatKLvAIyVZNa10BsEIriTvrDZO1LrK6j8HN24Uk7CpyXMkjHwYyFH61O80UC7iYvliwx1qnBAGgag3ag5ZGVQTGWDVJb6K0QMAdWfpo0KFLHLHkmPI7VpvhzhckQ+evE0uw/hRn8A7n1Nc4HZSXSJfXkehCMxxnr6mnsj4FYD9EZXwKXXNxgHFSubjAO9KbiYknepTkVhAjcTZJ3pbNKck5qc8vPNByyDBGaRKy2iuVzvQcrgc6nM+2c0FLJkb1SKJyZySTrVBl351VJLVGurqJByPqk9yZZFcggE7Vya4Aiw4wMVGUBkUE6SKDmnYKUVA2OvPFSbGSCRNHFblgMZzihIGLvlMCoRxTSwkSqFVvXpRFibdLpIZGGOuTWNoKS5OkoELN2UUqvrrw7kQyB1Zt8EHNbVHs7eMHVGo96GvLjh2Q8rRbcs4puv7E7/o+b8aF4koMLsqdQOtF8PldLUG5fVnrTriyW91MJLbSwUcx1rOz8Ovp3KiQIhPIdqH6CvaKpl03Jlkb+HjZc9KMhnhuIdKkduVRg4c8DGKYl89a5d8ImVc2rqo5nejaDTCJDDBGDHJq9CarhnlndkbIHQjYGhIIiEXxsFw2Nu9NfCVArsukdKV0hlktkAHD2RWIfHMbUHb2Mss6PPrkAGMsc0zgaKZC42086XXvGQlwsMXIHBIo7BoOvbdbdFeMHHXFB8Q4tNHZrFaAMzbcjyoiS7DxoCfr5Cr4bBFKMQAx70LNR7glmwiMrsWdhk+npVEl9dOXCqDGjEA98Uastza3BHhgowwCKWvdCC4EMi+d2JAA6VjBMPFpZW8NAFAHmY96zfELbiEnEGdZdSk5DasAVoPBV5hDbQNJIRkgbUXw34ULSmfi0jgZysIPlHv3popk5zjHYJwODiqsj2ihsHEjH6WFato2Aww3PQmrwYbaILEiqqj8HSkvF+IRMgR2zn6JF2KmhLjTX7OXl5E8sPMLIcjK98V0atyMMB64NZAfE17AHi8ddcZ31KCGFW23xffS5xZWz45kMVqT4mLFdtI1TOqSKhcK7jUqk7kdcV6F38yNtp3+1Zs/EVpxCJYr+0IbOUeN8sh7g42NMrWZWsklju2uUyVEhGCSNt+hO+9K4UUceqyA/FHEUTRZPK0SMviSuvbov35/lQXCkT5RuLGEzafLboF3kbkPzPXoM1rI/h3hPEovmL+18eRmYNqdsbEgbA9gKO4ZbxWjSRW6KkcXkRQNlGeX7VZQpJex6Swj5xcNxdtTTxiB2OWJBBNW8OseHvcILqTzDcsTzr6a3m+rBHqM0PJaWkrZltoGPcxin61ov2M7a8EtWvoZ4WEiK2vGOvStERIOUZNWQ29vAMQRJGP9oxVhbbmKyiBysXTSjkwKnsaVXg6jFPrhRIhV1DD1rPcRt5IAXiJeMc1PMf3qXImW4mhVccjmllw3lNHTSCRcild1JpRs1OKLvQHDbpdXDHILLtg1Kbg8CIxkvAkh+lar4XZXLXguBIAjZo2TAl1zqkax8nbcsa6G6dJnLV5aAYIorW0ljmdGlU581Vm5tpYMaVjIONuZqi/UEkkmQuclh2oHxFVSqKcnkTVIxvJNyrAWS+nSnnAPPO9Wrd3ETYjLlyMY50vhmaB8kAn1o/h8rEyzSMNJ2oyVATvQ2ikzAmdm/EM8q0Pw98NtcXKX9/hrZRmOIjdz3Pp+9d+F/hcAi+4jGcN5o4m5n1b09K2LuFHSpj2zjsFFL7qfANdubnSDvSe6uCzHtUpzKwgcubnJ3NLpZjXpZc0HJJvUkrLaPSyZoOWTfnUpZM0JLJVEhJMjLKe9ATS71KaWpG3eCNZnZRI3IHfT/mrxVEJOwYxM34gD+1c+XH/7RRK20mjWx3Nc8F+y/lTdhOptbiV5pkTxFVS3m9a7cubSMojrkjr0NYie7nN8z63BB2HapG/lkk8zuV9an0Y/dDKe543PKyROPDB5gYoyxgmA1XEmXPrUOFC4lhIU7YyCalHYXazu0sp09N6DMkMoYmQEu7OvQE7CqXSJVZzg5PIChIDdicxIQyHr2r00rrceGQSV35bVqDYVJNLHGPD8m2wxQtoOI3N4rSNoiU/SOtEXYe4gi/AyHPKioXMcOGzq5AdTWMX3FvKzLkjFQmhWMEeIzHHIDJqyw4fxK6fXdP4MOcqo3Y/2rR29hDFHpVAD1J3JrKNk3ypaMc/DrjwfEgtpSx3GV5UTbpNDA0t+j6gPp0HatfgRJpJqcciPsyj7imcLEXPTPl0vH0SSVbaIs0hO3aqLEGB3uL5Oe4UjevptzwTht63iTWkWtfxhcGl958Nxsha3w5HJW/vWprQy5E9mTsFvLy5F1LGY7ZBlF6mrW+IlWXDoxA2AFE8Qe+ghe2WEpIBsuMZpdZcEu7yNVSBvHY77bD3ob2PdIc8PvJriM3D4MZ+letFWnAbm9nNxcr4aE7YPmxTrgnAoeF2iBz4k+PMxHX0o+Ypp3OMcipximUayyUuRtVEotbO3so9EIBb/AHDc/eqp7kBWEcmh15o3WgbriTRObe5O5GY5QPq/zWf4hfT3GNgtxFzweYrOVaOd51sPv+JSRFpVzGQPOp60Hb8I4jxuMy25jitH3E0p2z1wBuf0oSxzxnjNpZ3LFEmOH2yWAGcfpX0pgqKFRVVFGFUDAAoJeWH7aRjY/gOxJ13l9czvjB8MCNf6n9auT4W4DaLp8KZyeeZ2/oRWinfAzS2QamyfepTm7ozk1oA/0nhgUrDZyA/SoSUljk/7qaScKubfg6cPs4rdo4911MdWc5znber7CyLus0mVRTkf7j/amTnV5R1p+OLrJWHZr5CzgN8ksL2s3kmgJLgn8zRPDX12PjsMGZ2cexO1L+PcOxm9tRpcromxtlcYz/SiormP5GHRhVVAuO2Ka6wx4q3QRNNzwao+ZQMdR5cq4lvNdeYfw4v526+wopLazgYNoV3H433P+K3yeSvxjgrR5JNo0ZvarYLd1Je5IJz5UByB71J7oAbHb0qh7nI50cIXL0XSunLaltyFYEVOSahJXzyYk1OUrHhGjOcSh8KVmXYHmP61nOKy6UIzjNa7iymSLUilmzjAGSaqtfgKXiOibi9y1unMQRAF/uTsPbehxRtlOWdRMAlxLGulZGx0waizMSS7s+RyY5r6yvwJ8NQphrOWU93nbJ/Iiq7n4A+H5UwkFxbsRzjmJx+ea6cHJk+ShpR9JOAOlVklmz1r6Fd//G5QFuG8V82PpuExn7r/AGpXF/8AHvGzchZjaiLO8izcx6bZ/SipIDTMkkck0yRRozyOdKqoySfSvqPwp8Hpw2OO64mBJc4BWHmsZ7nuf2o74a+FbPgUfjlRLfEHMpOrR6L/AHpvPMYlywwP5ulJOVjwjktklCjc0tvLoacBse1VXN2CDhqU3M5Y865pz8I6YcfsncXJORnNL5Zs5351GSQ770O7etTSLaOPIetDyNUnffG/KhpWwdjVEhGyuV8GgZ5uYzVs8uAaAxJOzeEpbTu2OlWhHyQnLwSRgH1P9vSj4ZEkUKW1LQayFEKugz3xVUE0cbgqCGY/lTtWInQ5kcAKsanlz7VVpf8Alpe11KrEeISCeWOVcNzJn/qtS9WN2Q04zELaVJJIwGddvWhYbmGS3YFFDY7U74nwl+J3Kz/N6YQNIGxoSD4UEs5RpnCfhYdaEXGsgl2vAV8N3VsLOVmbzLz7VC6vzkZlzk5wKZx8Nh4ZB8pbw+JkeY880AOCwC5Fw0UgBbGkk/tS4TbGzSJ2UbtJ40LMVPMdKPgtUlJkc+cd6ZcOtgSsPhqgHIAb1Hi6QwXFvag4lmcBQOfOhs2imHhklzh2xHHyB7+1OrPhsNuAUXB6s25NEqoVzg+RfKoxyxXetUUaOSfI2ywKEHlH3NdDZzgGqiWbbOKsVSMAZ+1MJfojjWm4371yMKwyCDg4271dpIAqI0xyKgQ4bJyBsKIrRMZxipAEb4rg54AqzBNEKIOiyABgNu4roaG3XEaqo9BQPFrwWQXUQA3I+tZq+4wxlOiXUuO9K5UCU+po73iYiG3XlSC54vOwcoGKru2Bmk0nEJbiUJu7E4XArWcI4I1sBPJNKJnA1aTge2KXLJXOTsyXEuL/ADNp4Y0MyHUGJ+mlSzNctlCFyMNLk19RueC8MvV03llFMepK4P5ikPxDZcHsrQfI+DazhSkSqMqWPXHfas40jrg7eRDwh4+G8ThnsZ2vL6PI0ybLgjGPStvFxqLwAeJaLaf8SKSwx0OcVjOEG4tHNzcwp4jPp2GCR3p9PxSxeCUSSBcDzZXfHel/6XcE/ATf/EHD4o2KO07qcBI13J6Uy4ZaTyxJc8QjETtuLcHIT/yPU/pSj4P+HooI/wDVLsieaUk25ZcaE6HHcitSxYnABx1JrLjSdsn1j4OuwAriLgZbmarjBkkYn6VO3qanKyr1x9qp+xv0UXUoAK4yDtjv6UusoRacSNtcRhh/29R2BO496qv+MQWF7bNcOiRtJgs52GxqzidwkzRXCMGeI8wea1NtbGlFpJhnFOKxWMTSXbhFUE7fiwM4Hc188uvjm/a+Di3jEA1BV1HzcwCcf060T8eXjzww2wKq3i4yx5gj/IrHQWtxdyCK0SSbBOQgyBz/AEp1Ussz+OEfQeHfEUXELQzEmNowPEBOwOAc+1VcQ+JBAieDnzMPOQCCN+QzvyO9Y5LCe28+mVvEbQQY1GRse526VOS4iZmivFWVZHGETOqPHUM3U7dce1J0zgp3xoZWnxFxOS9w5YK0iYUgYO2CD7/pWij4i88vhrFIshOlU2Oo+mKx93HaqgEXjvcqyhUbmFGBg9z2x3FfRfhLg8tnb/PX8Qju5V8se58NfXPJj17VnDtoymo7yxrwrhotVWW4w1yefUJ6D19aYswAqvXtXoxr3b6f3qipYRF23bOxLn+I3M/T6CuvUmcDmaqeVW2BxWZtlTGoFiK6XyTvUXbaksejxkAG5x61RcFmRlDaSeuK9JhlKncHnVGy59Tk0rYyQr4jA0eWgGVPNO3tSaSTUdjvWguXDbA5GOfQ0hvI8SFgMZqD2dEXgHbfpVTZG1XDlUG250QsElU6hhsAcxjnQs74B9KKmYLnJpNe3GSVXGarBWSnKkDXVwA2nc1TBeTWwdYiFDjB23xUGj3JB1996rcAN1rqUVVHG5O7CUmZ2OvODyzVzBDGMOqsOZqhIpMAMjKOeWGK80JcgLyI50GkFNkhJ9RJz2zVfm/mroVkBBYDpz517Qf5hRNZ9Pg4WzW6GQjbBxXHu/lEcsAShwMUcwnEKmbCg7c6UNFcRTvg64icnVtXK1RdO9hCM05EsYJZt3J6elekSOWWON7gBi3LtQ/zksaSLIvhoeRHMis/d8RV5xmZYgTseuKyVmbo13E+L2/BYQlpC1zMSA7DcJ6k/wBKVWPFLe9+KrTU5aaRsDPbBoKG/sPlSj3DOqHVKwG1c4R8vLxe2vLWFlWGYMHI5jlTf0RrGD6A+EjLMQAOZNexVxQOhDKMHO3pXgoG1VONrJWV1DDbirFBHKvRhivnXByevSrAtGjIqiR1eQs5dXOQD+HblUlkjed4Aw8RQCV9DVrRhlKnODtzxVEVtFaK7RiRyf5m1H2BNagkGukidIZ1ZHkcrGBvkDrRMxm8M/LlA45Bxsa707+9ezWNZnLzhPE+KT2UnE50VInJaGEZX7k8xR5+H+F6s/Jx7chjb8qaajUWOxLMFUDJYnAH3oUgNXsrgtre3GIoI1ONtKgV67u4bSAzXcyxRDqx5+1ZD4l+NOHQwPa2DtcTk4MysVWMjqD1NfPuJcYv+Jvqu7mSTbT5jnNFJvQyils2XHvj3W723C1GjBHiHr61iZri7nuBNPO7yDdSx5e1DJzAq9C2CGO3rR6pFE/AwuOLXjIBHcFMLuE6mjfhDhs3HuORQ3MjtbRfxJgWOWA6exNJlg1nMWdfMqBmvr/wXwiHhXAo2jTEtz/FlY89+Q9gKGFhD5eWaDyooAAAAwAOgoSacsyxxnzOcCp3Eukc6hYxB2NxJ7J7dTSPLpDJJK2EbRoFXkBS+8l0qzMcYFFXc6RISTgCvnPxN8VSid7GyUmQnTkjnmhLOEPCP+noV/GnFBe3MVpGykRklj0B5f3qPCbziYubcTXsZiiHiMjtpYrg5Bz0xtml72EUBVrmO6mkY+cYCqW2OM7nY5B9ulMVLTvLITJJMrFY5YhjTtuNyAACMevttWaXWjdm22PfiLQ9hFcNGk6QsNSsOYwSp9j1+1Zm1EfhuJlWO3BOtCW0oRueWDgnHM9du9W3E0yWwtbhrZVH1xKxBznOCv6Clz+FLIklwWjDLg+GwOnHLbGTy/zQhGlQusBM7eBcr4Ak1IpyxcaWUlumT/ShQvzDYLBge2wXfb969JdITrBLOuG8y6ck9gOm3etT8I8MXjt1I96QtnbuGkAG8rHkuOwHXnj3p8oGGMv/AI9+HpFA4vfAMF2tRjPoXPTpgVvSoxkivLJBHGkUKqkSDSAowAOwFRd1HmkAGehouhVZ1VydTcv3qMs2BhdqpkuQc70OZtzvmkch1H2Wszndmqpic86EnvQLiOFTl33wO3eiwDjzUl2PTWzqgmuupxVsaiuzFFGMjNGsC3kDc461S+42q18E7VBhgbUjKIX3AIBHSllyMqabTgEGltxEW+k4PUVJrJVPAm8QrIV7V2R1A37UNxSKaFvEAOB9VK7i/Ij6bVSML0LKaWy7iFyqeUMMnbelEyMX1KwboaHmmaaTOSe1dDuAADkZ6V1Rh1RyT5OzLyQASYzp9qlGFVlCqM9yarieL/uIx35d6ueQgsdAOBzb/FFgXs5fuXuXBkZ1H0sTz2oZy6rk5yRvtVmQRrLZ1HJxXTG5BKg+/PassAecnk8Eocrk4GPfvXhbqQD4w39alBbGR41VgGc4xjH61E6QcYO3Zq1+jV7Pq19xGG1iIkBmdeenpSq2vZOJpKXcRQHkWGDQsjrM+bK9EjvGC8O2x9KT8LkktpLibiGUOogB+vsK5lnJ0aJ37cWvJ0tXYLCxxHJH27GiZeHcJmtEguMxXEflMhO/+aqW/kuV8Wyt3MYfAz+H1NVrZR8StJ7lixli3wh3Q+tPn+C4/oXa2vCbaF7SyujMzHE3UmmdxxFrO1W2gt1WQ7R7cxSaxnt2lgW0ObuXYnRvt1NE8ceWGaDw3kEnLUwzqJ/alp3ka1Rtfh/iBv7ICXAniAWVf60zK7184tOMXHDbuadghEajxGU5wM7A1s+FfENlxGENrVHI5Hb96rGWMnNyQzgbAVICuAhhlSCK7v2pyR41zrUiMbnlVc0sVvH4lxNHEg/E7BR+tY1Ha8F1HAGaz3F/jTg/DMLG7XkpGQsRGn7msTxj454txENHA4s4D+GHYkerc6Gw9Tfcb+J+F8GRlnmE1x+GCIgn7nktfNPiH4r4jxp9DsIbcbCCIkL9/wCakJdnYnVnNc05NMo+wpECSx9alpIG4q2MAZJwPU1PyhNP1Anp1NGwpFABILAe2KugDy5VQS3XHaopDcM/hrDIWY7KFOaZ2dhctcQQJpR5ZViLaxsT3A96EmNGLDvhzh8/GOKQWdtI6w/VO4/CnX7nlX2IqkMKxxqFRVAUdgKTcGj4J8Oxjh0NzGbpj/Fdzhnb1P7Cq+MccihRvCZXOQBg1OUlErCMpneK3TEpbwbzzuI0Hqac3DRWlvgHCoAua+b8P+Iom+KlvLlwYII2CKdirEY1fbJ/OiuJfE095Ezxoy24yQxyusDscfb0NJbS1kt1jJpXhBXGuMSuZBBIMA4UZwOXU9uZ+1Z+KISwsYJfEjQ/xXcnSzgAnSBu2+DzxyqD3+uOOGVQiOup9bOTpOogDAH+cClztM4fUR4A8yKiFFK8sdAMZznHPvSqL8mnO8R0RvzbrLMLZtOcFGz9IAH0gciSTmhBdX0lt5C+hPx4+lu+eeaZzylAqRwhAmZNZfXrfA83LBIyNx26Z2AjugJFkOgKpWMhl1MFOxO+QNqqtEWs7Kj4njh1ZxKfpaSMHbHM5HrzqHhF5C0zDxZMsAwIBPXc124bw2RtT+KpB0nOnbkfvz+9QuJXldGOdAzpA2PrnHU0yFeNnC2Qd/bAAGfan3wndcW+bfh/C0MoufM3L+HjbXnpjPWgOCcGveM3Xy1pGQBgvKykLGD1J/p1r6zwPg1pwCyMFr55HOZJSoDP+XShKqphi2nYRZ2hs0BmnM82MFzsF9v71CcyNLpY+U8jnr2/zUppCx2zvsaAuZ4rSHBfUx2XG+Bn+lRbSwWVydvZdIwTIyTihfEkmmMNsmuQ8+yjuT0qNpHccSJfLQ255tgZb/x/vTiFIbWIRwIFXr3J7k9aCV5GbUceSu1sorTMrYedhhpDz9h2Feklw21cll1bZqhnUDOaLfhCJeWde6kjGFFDm4Y7k5NVy3Ef8wrselhkDbvSPJRKloIhJYAnnXZ2K+ma9DLGmSxGBVM84lfyjy9Kz0CrYNJlm3qvwizg77DFdyHlZVb6TvtvnPL9KITGcUiQzYj48vh2ErnAaJdQ7MOor53PIZWJ30nkK3/xpcxpwmWEECVmVQOuDz/QGsBjAI0kgV1cKpNnNzPSK1G+cVMbHYCuqFbrsateLw223BXIODueoFWsjRUoIO2SKsDNpIDeU8xmqiGBIUHfAxUgUTzbNnnWZkSC6mB1bAciKg8hV8c8muqS5I8ozyycV1k1AAAFum+4rB/h3X5QobJ/lxyqWX7GqMGPmc5B9Kj4inov/wDNagWNbN1kvQ8tw0ZAGHXl98U2t4ru9IhvJo5bSQMdbkak9qld3VrfEx8EEcJCkuJFxrFUxcJu5ovBlnXwMagsYzgnvXO850dEf/QteIcOsOFva27GMDcvnOv3pbdXUs9lpsIWjE7gTMh/6gFEi2srW/VLaBJ5Xj86v9IPt9qaQSQFkMBjUxNqdVPmUAdB1oWkFpvArs3tzGsVpKbaaJjkuPMT3pnaMkkaxtNPPck6mYLkH09KEt5GvLu9cwyNIwBfWg2X07ZpoUvHa3gEot7UJmRo8alH4R3rSNETX1w9ld3Bg4YjQgAM+oEq/r3oM3k0/EIrm5nIhQY0g4x3GOtQuFNndzwrYtMod2BmyQ+dgcV4WTNZD52AIZN4EjODnvT42JnQzfj00Ehbhl9dKHbCxbt98HlXm+LOP29uC3FAWIIKsg1A5pACbWAuAyMwK7PkkULIfG0kZZyAAOf3poxEk0Oj8X8bISM8Ql8MdABv70uuL2/uE/iXUrDSFOs52qDeFGFjijIcjzl99+uO1V5YvjOx2pqQpWVbHcnkSaiSw2PWpyoVJCnIGwNRKacat2I/KmFIouGJqYXPLn6VXqwdIGc1dAjsMrqJB6VmZZODLFY0AZ3YACtTwfgNvBbrd8QkKP4jDSWK6AAex6+9J4o47KIS3lrqcqSgkbSTnqBUJ5mayt2id1VCTo8QnSDy6D1qcm3hFopLLDuJcbjaKK2sItMQJMheMefJ6dthz575qdneRwN81BB4MiupfSNJYbYVcAj742FZ6MOJVCqWY/SANzWhii4hdaLAZ8WF10qSI2TAJG3MnG+fzoSilg0ZN5Ft9xCZ+KG91N4uVZdWT0HP75NHPxG6WFbniDLJHJkxxRyYjY58xYA79se1KbiN5eIMjK/jSSadJbfVnGDTkWnhRNZXMogUyBpA5+iIdlPc/c4zRaWAJvILHdcOiuxKsPjkAA5GlD64yT/Xam1xPHLbFo2gZGPmKDd+QCnJBI756VbPw+z4bwpbyfDfMPpChNICA55E/VyHpjlzpPcX0b3EnyfipE2yIEDEtzJ0ncD1GeVJvRS62D3CCOUtYzyRq2SyYIYc+R6j6qqiRku1UyI4AySQSDg598f851P5aQMHUTK2Mq0oycAbnB5KTsM1OSG4a8mWWLxZWA+t/wAWx9icdDyp7FoojHizFprgxBUBLO2SduS/vipSTqjy+CCpkOBJnGwGCG7896tuLQyGNbkubiRxkg/SSSApz15YO2BQt2YzK6w/9NSACdydsHJoqmwW0jk8bhgCVOwI0sGGD9/0p78LfC0/HZjI7NFYRnEkuBlj/Kvr69KD+FuCNxviwtJPJbxAvMy89IPIepO1fXUVLG0S3tbdYoYlwiKcYFZugJWyNnZ23C7RLaxhSKFPwrzJ7k9TVUlzlyAdsZBqtroSqGQkUAVmubh4LEgyE5aQ/TH3z6+nrUHJvR0RhWy+4vlQqihpJn+mNBkn7VOHhsjATXccZfn4Q5D3PX9qOsuH29gGZcyTv9cr8z6eg9KnNJzwcVuvsXv4iUzTSxqCqBlHNRsR7f2qlrnO4OxGQahLOkbeJI2l12Ixs1BSSyTOY7eMs/UDkvuegpXIeMC6a7VMsSAB1qEcF5f4KgwQn8bDzH2H9TRNlw5IWEt0ySy8xk+VfYf1/aj3nUbcjWUfZnKvxBIuGWtsM+GJH/nkOo/2quclmwDgVbNcjSd8UrmvVTbOWOwAG5rSa0jRTbthBiX8Rz715QCcLQ62fErkayqW6dpD5j9h/XFErDJaJ5pUkPZVI/rQ6hvxZ6RMMrecYJ5cjt1qvxlDMRk6duXOvXN0GUZOluo7Vl+NfEC21vcQwELMrKsZ5gg8z+dBK3SM8K2Kvi25jueNYjAJjQByO/T8v60lVXOQqHHfIoi0gF0HnDoTgs5kfcmptCySlopmVwp8wTGVx0zjpneupfFUcz+Tso8FnXEUTHVvuADipPAkayyy6ckjQqZOQa6cRyRlpjhANPg5JbHPtp51ySW0ddfhyqWYLpXAAXHfqc4o5BSoriuF1DUMKowy9G9yOVdmtpUgjuBAwgk+lhuDj25H0oi14RJMShEkBZisTToQknpno2PepWdjdW8zeA8bMrGNgpyrA8wfQ1m0tAUW9i0KwzhNJ+k7V5i7PhsA8jjvRTq51OzkBGIY4B3ztv16/lVLx6wAQ6kHfNMmBoqcDVgnYdRyND8u9EAqpZD7HP8AeueG/R2pkIwmymksJmYqMMhU6hnFGrxSSe4UNI0UbDDLF9TjG33qpI2uWYzRllJx40Z+r86Ihj4bAUktjcJdxElTKMK3uelSbT8ZKpNecBvC+Ci/u4Vu2ks0lGUl56TnGCe5rQ/ENjccP4bbcLs+ErdZTHzQO433JxuDvWXuIy0EBSXxrw/X/KuT5du/rTCbiPEXtZLPiF7MbxgIR4ewRc5BJHfGKRjpehk3CeILw9rfxGgeX62jjLjT/wCXOla2UHDg11LxQv4cf8FznPiYwMg9KifiG6tJRb3TXIjVACxbBO3PA55qVvdQ3XFBi1mjhKmS5iKrJkL1yeVLT8jWt2JP9Tu4JvEeUrct5mlYZO/YcsVQks9xGVZ2cKdTMW5CtaeK2vEILl76NHhQZCI6KQmfLzpPNccNnstFla5xgugIDED96dS/QjT9ih5TM6x4woOAANsV5WzII1AGkYyOtMFtYGtjJcrJAYQWAK6tWTt225UFhkYJEsirIcAsmC3WnTTEaayyln0SszLvpxjtVZckkHGD2r0yMracDPoc1yBQWIbGobgGnwJmyaY146AbVNbd3Zgu/qSAP1qAXLBs43GDnFGz3EsMRtxF/Fc51gEtvyAoN+hkl5AIoj4razpIHMin3BPh6+v5XIXwYI28zSZGo9gvWi/hrh8bXIN0WGlAxQkZJO+BvtzGc1qeI8QFtZxtcrFBbhwqnXgqOhA674qbnY6hQstuCLdX0UU9sZbKBcK8/lLbfhHMb9DWbu7mO64totvGlgiJQBtLNoz0/anXEOK3FxZSWnBi97OQyyXZUKI1PTJwMnP/ADopsLD5SxcrEJbgr/EcviNRkeXVnGfbvQVJBu2S4fw60d/GlmaU7MI2DJoGdySOZ6cwKlxeyaPS8EkZMsuSxVcyMRjA79QM/nyqPEbm0kkQPI+kJpDQqcMwB6k55kY9KDi4k9vDqSJZH1FknlXVrYHmB0PTHqaC7N2N8UqDeHpa8IPiXYLsdbOxXJjUbADB56j7GoI5PDJrq4MSW4YJHGzaix04xgMOWc8qWym54hcsGkDkRhFHigBFBHl35+1UCBY4tTa3GSMoNsbb5/pinr28iN+lgJWYRl5JFluHdsIWxgAjOcDOD7Yrtvem3SZbaYKzxiNWeNckfi3wSM78ufenUNrYywSNbXC2ybBnkVfO4GwC4GDzOfUUPdcL4eDI3iXUrogYYIVjnA325D279qFoLTF9pcXWhVtInOlwWLHZgTsMnbfb33qVy8sEsgupmhus7iNcBeeMnnnc1d4XDIrhX8IBQQdMkmoHPb7dTVKXLLKYLdQicyJmHMciMAZO/XNbD0g5W2K5NQYs+SG82T1qyBGkk0Jhi42ycZ9KIxG1u7FlUggHfJJO+2+4HWq9CLGNRVQCQwznB9qftgn1yaT4F4qvDuNzwXR0C4jCKzHkynln7mt3xHiUFvbGWSQDtvzr486KSxc+H1wQRt0xX0L4P+Fnjgi4hxtpZncB4LRiWC9mYf0pWvRSEktoZcMsLviEQnuS1vaNuADh5PX0H608BgtIvCjVY0XoBy9a7c3LYxIhUMcUvuWK+cHGOZqTqOirubyENcgkgf8AuqZrgKCSwAG+TS6GaW4ma3sozK6nB6KgPc9KYQcGVT4l/J80+ciPlGv26/elVyC1GOyu2t5L/DBGjg6Snmf/ABB/emkVrb20eiGML19Se5PWvPcaTgiqXuMnnTKkTbciF3LCo/iLkgZU5wft60se7jJ1Qg6HGcYwAe47Z7Vbe3MKDMjKN8gHv3HrVVvw+W8YPMskFvz0t5Xf7fhH6+1I7k8FY1FZB41nv3KW5VY1OGkbkPT1NNrSwtrIakBeQ/VI27f4HtV0vhW9tpA0xouAF6D0pLxK8Ft/FW6LSKuoIf8AuLRpRBbnjwOZp1UbkZpRdXSpICWxk79ves9d8abxY43ZdXNQx5djSu+vpnTXMpkh14zgEFQf+da1OQMQL+J/EKxzzLj6HKgA7t/as21w9zI08hUvnIyMgfbrRMkniyJvEExoJC+U7c8Y571RDbGSYE3CpEr4MjdB7CrQjGJGc5SYZCUSEpBB4k2PLrA83sMdvXpUFYpCgcazGS2mSNiGGcHr0wOlUTRpFKHjnhmBxpKbZ9weVS+ZfwmEi+Vt2OkEkEYA37c6ahbOTPas48J/EOwGINGD15E5+9T4bdRxSs8keoHyBEOl8e+Nge436bUNG0SeIqjyAgqxGGH74rmWRWJjZcjdt8qc9f1FGhbD4LuCKB0mCguPKIyQY2G6kb89/wDnKvZsbZPEW/eaVFyVKld+g3G+5/el/jlspI/lG4O53zz588VZMLGQs8ayoTIcZbYLtjv61uoewabhp7IiVCwfyKGAJ26A9D2x65pfcB1YsuVVdjk7girRIoLorKW1DGljgex9/ttVco1ZVkIlViXOdj9v+ZzWSozdopDgqTjcj3rhMROSh/OpBFVcg4yf+YqOle3605M1Mtp4QWztg4aEh5GVCV1AdCOdXx8Je8t2m4ity5j/AOmpbQG37dKoj/1hrmeG2eW+i3EniEpp7EHO1DnhxvBE0nzVmQmC0v0kg7tq6moUdFjAWsZeZRwFmlfAWRbwq6+p6VW9touDCkiatalneTU42yRgbEV2CKzmtJ7m0uZJPAXSVbyB3x07jmaU8TmRWFvAkjRhVYvK+TnHUjtypUrdBwlZoLluFylzcxwssbkknJY74GNXL2pRLeXiQ3TWOrw7nZyI8hVz+HH5Gls0UjgSMPEUgBSM+Ynse/pVnDYb+7jSOMssURLoCCFz13HWio1mzOd4osg4W1zaqlpBdPOzZkJiKx6RnGPWn0EVgeC2/DXiDCOZpHcDEqgjY55c9selct7o2FyfHDsgXOgOWZF2+oZxk59aEueIx3Max3LCVpFEhhjQN6gbdccxmg22ZJIvukktuCo6Wz3MeNRkkOCAD6dNxSOW9ur6V5p3WNDtt9I26AntXeI30swIhiEUQXQEIxhexFcsbO5lmRUtAJAupTJ9OOed+ftTpJK2I226KStu7RJGrBzzY9uho7h3Bpb+ItAi6gN2JJA9eXSnicK4dDGLi7ZBNGpkkndS2SdwNPIY7VU0Bk8N7a7aKK6BkeTSFCoBy09By5UHL0FQLIeHcNtZ5FRNVjEo8a6c5Lv00jmvI8xUGv7K2u0nsYjJol8TTIgy+ADsTuN8b/2oGa2v72O7vRcRixthqDp1J7bbkD+1CQWd3cSRte2s/hJGC5bqo38pO+TvsMUK8sN+Au04nPYtquQJ2Lai2vUVBAzkfp/6q5b9+NTrLPYWqWdocsGdstjcALnbPt39q7ccNaawmmuZFiC4kjt0wZHb/cwBPf227UTFZw2drb2cLeHOWMzMX1OpAGoEZxqAPtj2rWkg5bF3GpLy5At9lgjAxDrIAYkncZznrvyGOVLL+6LJGHiLfL4jVnZsEj6sDOMewFNeN2o0W80uRFgqz6w7IoOw2bzHfngYzSxIEveIeDA5eLQVUnJWMcwCeu5/XamiLIEByi+VmYHOVU5B571ORJAdcIcxEnw2fYFcA4rR8P8Ahq4u45FiiQLDgNNJIRobO4IGcnGOnXeocVsOH2VwLRG+faFSNIYqRvuM56Zzij2B1ETQ6HBuYTCuCyoO4HPc8qplgjtnaOYF5CVxoOAoIyfuOWKf39vMsMkgktdMo8zyzEqgGPKAQDvyz1xtS1IDcXMjXE0UqRx+IXjPliA3xvgZ2Iwc1lIzjk9cypDdE2hZWJ1PGzE9cj32511rltIxLIZvp8SR8FB67dyeuaGllVJFlhnLAsDuvmGAN8euT+VD3Mkvm8RxuM79f+b0VEDlQ3mMEYtY0smuJbjSHnAJLkncD1II2GKX8QtvAmZVRo9Gcq7AvjOBkDl7UXOqyxxwxXKyGNFVkj8oVVAJbPI5/OhZEWzuSrQRMEcNgt9Q9Ou4PXehFhkgRP8AdqPQHpXWIEpwfMeWTt686unit2dpLXywuxKIzbrvyPry5VyO3kmZgIsqo3YAkL609onTOvNiTMmXAZWIzsf+b/nX3CDiEVxEJYWUo4DKR1B5V8MkhnVFLx4BGBheYHXNM+FfEd/wy2MKHXEo8gLbr/ilae4lIuLdSPpvFr5V8rMMDdifwgdaH4VD/r9q100rCzLmNFQ4MmOZJ6DptXzninG7ziIZCTDC3mcFsl/8elaP4G+IEt7BuGSsEaNy8Xqp3P5GpOP+pF1NP4QPoUdvFaQCKBUhjXkqLt/mqGmBBzzGx9aAbjEdwrBXA0fWx+lP71kuK/FscOuG2fxWBIGnfPueVZyv8QLjrMsGnvLpYAZpnCxoDkn/AJ7Usi4lccUuHg4VH4oXZ5ScRofU9/QViLjiHFeKxpHLK4hP4FPP37mtx8C8Qs4uER2Togkgdg//AJZ50Olfkwqd/ihtw/gtpbyrcXsnzl5jYtkKvoo5D96OuJViBxgdqpvr6NiArKApyxzsKzfG/imzs1KKfGlPJF3/ADrN+IgUW/lIY3vEUVA2RpPU9KwvGPiFp5HigbxUGRH0wOtA8S4pfcTk0yAxRO3ljUY+2aCRV8REQBQzBSx6Z2pocdZkJLk8RGFqJYoPmJ8tLNkhSucjGw7j7GoN/G1OpnDlRgAeU/2FSuZVjkKoqrj6SgGPY457VS9zM5bWQ6N1I3Hp3P3p1nIjaWCEZGEwwGHBQkaiD32/b0qfyjLPG8c7xyMcnKlNj6/n6UFO7+UKx0Hz7jryq43zSENJ5nQc2/Ftj/n2pqfgXsvJwiJYSzl1kZshQRuM8uVXospXQT4WrOdWwI7Hr039RVbzawGZFIBDK4Xkc8uxrkytE8fjsumTDnSc4z/zlWMEiBIZBJcM0gXYqqjSTvyPb1x12qm8uGmZcshHMBRpCb8uxqEzo/8A3ELKNwkWBj0xVRdVKZ82ls4z5CvbH+ayXkzfhFzQRsQsQBc531ajMc48oxty96mbFdSKivEVALs41ZJGTgDtvvUrEWoufEnjQKHysRJGnOOeeg9TU7pvlkhMVu0ZkUuJNQYk9wenbHb3rWzUgDSmjWGDDJDLnl+ddGwwzHQR+e5x+1TlkgeJTDCyS/iYtlT3wPuKj4ZMRfAAz35/lTCleCQ3kIBPuM1zTN/P+lWA+UZVt8farPCkO6wsVPI+Edx+da6AlZrF420b28FqnkcOWOcvuTsMjpzpm00Zs4vGkW5xIAIkjyrZ6N2yRSleL8WvVl1W8Soq+dQgUxg8slts7cqsTjfjQxxTzQxOEGlYpBliDyYDYZrmp+DoOXd5bi8ljlWFILZC/wBRVhnbAUYzzxS2a8TjEk2uILaWxVmCnmOQAH8xNNjw6G/DTNFax2cZGXc5ynNtG/7V23sbSSQ3nCZWkhjfaOQYDY3xjblnnk0UzNOxelpNxS0QSpNaRrhkVEOknkMDkfU7YpzaWMsLx264inC6UYgBQN/q/wAUTJMPmWQ3cSzTIp0xjIVcHm3I/pS1rS3ikM8lwiyqhiQzMRqcbnOxJ59KDCgmfh1o4aJ5mV2GXSEZZic5Yt296zVlYC1uGJdZ3SFnUJsgycAlsj9O9HXH+qXDXMcV8UhfzyIkbKiqRsDnBHqPWoWfCZElDT3kfgzAsDKuoEjPmU9AMczgdKZYWwPLCuFW1tEyXs8Vv8yy5jtxbFVByOpxk/fG9F3Nys9z81a2cSKcqyxSnIOwOARtzGcbbUSStwsUkbq0jKAQISHbIwSCfp307gftSfinAxaRF5pLayEmVKyyMWc532Iz15ilWdhutFnD7Kyhe4Xi8lzdW8czKRBMMHIG7b6vsKa3T/DU3hoJJ3hKawmMg5OATqA9sA1moeCSI6TmeJ1Zl8MElM4Oc4IHQdaL4jaCNLieZolhAHhCHDPGPbr03z19aLAkNPnuAy8JWxgv7iOCOPDOtphEJOBqG+/rnpS6S24NExSw4rLeSyLrCvEzFcdRjYEb79MVfaPLZf8A1Evg0MsapPokRVO+y4x6gbHPr2CkurVZCbeIiVhjKvrYleWcEDucDPTejfoFPbGsl5GixRhibgfR5VxHnbJ69NznpSe9u1+duJ1diFXwUZWYaiBnIG/QrvsPTeq7bhV7xDiLlLMLHCQJDOzDQCM6ctk+uw60Hxfh8NuY1gvI5ioAkVQNjgUVFAcmVvey3vgW8jjw48FtTZ1t1xnrudqHkZ7EskkJ1FyVeQHDL6D+tRs4bVxMbhJHWNdWpDgex225/f0qU11IoeOOUyRO2ACxOw5eUn/mKpWaRO/LGXDuOXNuhkhS1iiLHOFGc9Nyc7elEfEV681/bXROoywAuUUYzkaiQdgdv050Dw//AOzZi3gijacS7BQSUUgAn2P6fenZ4bw1OG3EKtLPdzOqp4pYLbr/ADZ6k6eXP0qbpMqraFst2ltP83Oj3LAaYWbyhzjAPqowPehYuJxyDFzbs0iDVGYjjL8iW68vfH7NpLVhai5uxNfQSDwI5EQAq6bkEk5Udd/WqZLewilQ29hoGjVJJPdao0GdjkDc89hn0rJryFp3aF1v/wDkpYoVgypOmMRLgk5JIyffqa7fWMq3QSe3lhaPGERdeiPlkkcz/wA2p5BdcOljeCCPxmU5lktrUxADuCTkfcfag7S0hVZfkblCEQuY3+s5XoD6ZOR35Vu2QdU0AtMl9cRmKKLGR5d9ZUdB6kdN6BSWVSPl3dEZxkc/Nk4++9MfCeKOaZ7qIDWCjsMyNyzt0X19DQUZ0XbOQJyVYuqgYAxjVj/FMqFdsnY6fERZVMqyDDZBGkDrkculNM2KW4EZRtZ0tqYseX36+2aTzNPbQeEr51gPmM5UgjcHvVUiyGVfFOWAVD5uQAwOXYVnG82ZSrFBUG8iQpIDhSuogBts7Z/pVLQorEOvhyL5TrPbnkVbpkezSVp2bAYIACM4I64xsDmoYngCkt4sZByNRIBYdfXbP2ogIrKisIoyRjO5AY4qK2zPl4pFJGT9WCp/52oqN4IkEb+GxIGcjVjbqDsMZ/xXPFBjkdkgMakAMigYzz2x/b0oX6DXsi8l28ZjlvZSpG6lzhsdD1Ncms/AgjlUko/TA077++akkcDlNMkjEHfVuCBg7ewz2q1fFI8OHT4es+EGHnA7Bsc6GtB/LZXi68NYY9KNIdOQQCfvntUAj2UhewunV1OJAw5ds4yKvzcIryLZwBlIBR8MWyT07+u1ejMMwjQLGrqApUSHAHMnGOY35Z51ja/pTccQ4ndKEnvCEYZwhAH6e1DrEiZBBVyMkk5z96J8Np2YxwmQ7EMgJJ9+3tUSjoSoGpB3XIGRyJx/6plS0B29kpo5XhEg2iVgMliCc8+dLyDq22NMFB8AplHCsCGXbpkgnsKkkixfMRlbdzOmhcjJQAg5B6f+6ydCyVi+SV3Osnmd8AAH8qnFIvMtlttsZztUriEasKFXbOxyP0qhIGywJJIz5Rz9xTYoXNlpeElY9GoE4AJII3710RQo2HYo6sQVAydvX3qTRiKeGeBJJMHUdXmz6bdNjUIBG8gMsbMhGpsEHG/Xtv3rBJCJ23WBzG4yDjODy5+5r13BbLceHCzBlfBLtkH74qx0hAJgD+Hg6cEas7bk9RnFRtYLgO0kRUD6TrIznnjH2+9CzUBuh0Z3z3ouG1Mat4itqjbBQDO/rzA9KnNbIIdMjsJgQMNgDlk7c9qYxvHHCIFCKo+oLJp05GCSAM9+eeVaUvQ0YZyCmGKWVylvLGFIZ2OMbkbcsY/56VBYbaVySuuTOXXGEU8sZHX2613UYE8OEFcBmFxjGpQDhSM45j86q4aPFllRrZ5hp1PjOcjP9SKHgz2RMULSjQ6JG5/ECQoyQOXX86Jt7KYu6hJHAJ85XSMdM9gQefTaus8s0bwQxDynV5GUFdOfvnf2qS+JGY0lhSLAMitIPEyD19zjPP2rWZJAU0DrldBQ88N1PqTjoaGEJxvcRA9iT/am6yQ307qEiWMRkI+Sqg5/Fnlz6YpeVgyczkem+36UUwOJ/9k=;" vertex="1" parent="1">
          <mxGeometry x="556" y="462.95" width="190" height="107.05" as="geometry" />
        </mxCell>
        <mxCell id="ChS81yBTxNXNN1gPd62B-106" value="" style="rounded=0;whiteSpace=wrap;html=1;fillColor=#76608a;strokeColor=#432D57;fontColor=#ffffff;" vertex="1" parent="1">
          <mxGeometry x="540" y="300" width="100" height="20" as="geometry" />
        </mxCell>
        <mxCell id="ChS81yBTxNXNN1gPd62B-107" value="&lt;font color=&quot;#ffffff&quot; style=&quot;&quot;&gt;Feed&lt;/font&gt;" style="text;html=1;strokeColor=none;fillColor=none;align=center;verticalAlign=middle;whiteSpace=wrap;rounded=0;labelBackgroundColor=none;" vertex="1" parent="1">
          <mxGeometry x="570" y="300" width="40" height="20" as="geometry" />
        </mxCell>
      </root>
    </mxGraphModel>
  </diagram>
</mxfile>
